<?xml version="1.0" standalone="no"?>
<!DOCTYPE svg PUBLIC "-//W3C//DTD SVG 20010904//EN"
 "http://www.w3.org/TR/2001/REC-SVG-20010904/DTD/svg10.dtd">
<svg version="1.0" xmlns="http://www.w3.org/2000/svg"
 width="1024.000000pt" height="1536.000000pt" viewBox="0 0 1024.000000 1536.000000"
 preserveAspectRatio="xMidYMid meet">
<metadata>
Created by potrace 1.16, written by Peter Selinger 2001-2019
</metadata>
<g transform="translate(0.000000,1536.000000) scale(0.100000,-0.100000)"
fill="#000000" stroke="none">
<path d="M7084 15231 c-33 -10 -70 -24 -82 -30 -13 -7 -28 -9 -34 -5 -6 4 -8
3 -5 -3 3 -5 -12 -20 -33 -32 -22 -12 -53 -33 -69 -47 -16 -13 -35 -23 -42
-22 -7 2 -13 -3 -14 -10 0 -16 -26 -33 -39 -25 -5 3 -6 1 -2 -6 4 -7 -6 -27
-25 -49 -39 -44 -109 -190 -109 -227 0 -14 -3 -24 -7 -22 -5 3 -8 -60 -8 -141
0 -120 3 -146 15 -150 13 -5 13 -3 0 13 -8 10 -10 16 -4 12 14 -8 24 23 24 76
0 60 29 187 56 243 43 91 215 257 246 238 7 -4 8 -3 4 5 -5 7 16 22 61 44 64
30 74 32 183 32 112 0 117 -1 183 -35 l67 -35 50 18 c28 10 61 15 73 12 18 -5
19 -4 7 4 -11 9 -4 10 30 5 51 -7 136 -54 132 -73 -1 -7 2 -10 8 -6 13 8 72
-40 62 -50 -4 -5 -2 -6 3 -3 6 4 39 -20 75 -53 36 -32 57 -56 48 -53 -10 3
-18 2 -18 -4 0 -6 8 -9 18 -7 9 1 23 -2 30 -8 10 -8 9 -12 -4 -21 -13 -10 -13
-12 5 -12 11 0 17 5 14 11 -3 5 6 -3 21 -19 14 -16 23 -32 21 -36 -3 -4 2 -13
10 -20 8 -7 15 -9 15 -4 0 5 4 2 10 -6 5 -8 12 -11 16 -8 15 16 -128 165 -263
274 -40 32 -67 61 -62 65 7 4 4 9 -6 12 -9 4 -13 3 -10 -3 10 -16 -5 -12 -37
12 -45 32 -116 35 -187 9 l-60 -22 -59 31 c-85 45 -166 57 -279 40 -51 -8 -90
-17 -87 -22 3 -4 -1 -8 -9 -8 -21 0 -163 -101 -218 -155 -27 -27 -49 -42 -49
-34 -1 10 -4 10 -14 -3 -7 -10 -17 -14 -21 -10 -4 4 -3 -2 2 -13 8 -15 6 -27
-8 -50 -11 -16 -19 -25 -19 -20 0 6 -7 1 -15 -9 -8 -11 -15 -25 -15 -30 1 -6
7 0 15 14 20 35 18 20 -5 -42 -11 -29 -24 -84 -29 -123 l-9 -70 3 75 c4 93 9
134 26 189 10 33 14 39 19 25 6 -16 7 -16 12 4 4 12 2 20 -3 16 -34 -21 43 99
101 156 69 69 81 78 168 129 137 80 294 93 423 35 56 -25 64 -26 110 -16 74
17 131 15 186 -9 49 -21 106 -67 98 -79 -3 -4 5 -16 18 -26 l22 -19 -19 23
c-11 12 -15 22 -10 22 16 0 216 -199 210 -208 -3 -6 4 -17 17 -25 26 -17 81
-123 71 -138 -6 -11 23 -49 37 -49 11 0 4 20 -35 100 -17 36 -32 69 -35 74 -2
5 3 5 10 1 8 -5 11 -4 6 1 -5 5 -12 9 -17 9 -4 0 -28 26 -54 57 -66 81 -244
238 -308 271 -61 32 -104 35 -193 13 -33 -8 -62 -11 -65 -7 -3 5 -41 20 -85
35 -95 31 -172 33 -261 7z"/>
<path d="M3450 15203 c-14 -2 -43 -8 -64 -14 -30 -8 -41 -8 -48 3 -8 10 -9 9
-5 -3 4 -11 -3 -20 -18 -27 -39 -18 -97 -75 -131 -129 -40 -61 -70 -83 -145
-106 -83 -25 -142 -75 -179 -151 -28 -57 -32 -73 -31 -150 0 -50 -3 -86 -9
-86 -6 0 -10 -5 -10 -11 0 -5 4 -8 9 -5 8 5 23 -56 37 -158 5 -36 3 -50 -7
-57 -11 -7 -10 -9 4 -9 11 0 17 -8 17 -22 0 -13 6 -44 14 -69 10 -32 11 -51 4
-63 -8 -15 -8 -17 2 -11 10 6 12 2 8 -13 -4 -12 -2 -20 3 -16 5 3 9 -4 9 -15
0 -10 3 -28 6 -38 5 -15 4 -15 -5 -3 -6 8 -11 13 -12 10 0 -3 -2 -13 -4 -22
-2 -12 3 -18 16 -18 21 0 26 -16 7 -23 -8 -3 -7 -6 4 -6 27 -1 32 18 35 119 6
293 15 490 24 530 6 25 20 56 33 70 28 31 50 44 169 100 48 22 77 44 100 75
96 125 206 147 328 64 42 -28 81 -44 146 -59 117 -27 154 -40 148 -50 -3 -5 0
-12 6 -16 8 -4 9 -3 5 4 -4 7 -2 12 5 12 19 0 99 -70 99 -86 0 -8 5 -14 11
-14 5 0 7 -5 3 -12 -4 -6 -3 -8 3 -5 11 7 44 -25 62 -60 8 -16 8 -23 1 -23 -6
0 -9 -4 -5 -10 3 -5 11 -7 18 -4 11 4 40 -27 97 -100 12 -16 12 -18 1 -11 -10
5 -12 4 -7 -4 4 -6 11 -9 15 -6 5 2 16 -15 25 -38 18 -48 22 -102 6 -92 -5 3
-10 -3 -10 -14 0 -13 8 -22 23 -25 32 -7 57 -4 51 6 -3 5 -9 6 -14 3 -4 -2
-10 6 -12 20 -3 14 -2 25 1 25 3 0 7 24 8 53 3 70 -28 178 -81 286 -24 49 -41
93 -38 97 4 4 1 4 -5 0 -12 -7 -18 5 -14 27 1 5 -3 6 -9 2 -5 -3 -10 -2 -10 4
0 13 -78 93 -115 118 -27 19 -71 35 -240 89 -27 9 -84 37 -125 64 -90 57 -155
79 -210 73z m92 -30 c24 -9 62 -29 86 -45 73 -48 122 -69 244 -108 117 -37
195 -81 182 -102 -4 -6 -3 -8 3 -5 13 8 47 -28 39 -42 -4 -5 -1 -13 5 -17 8
-4 9 -3 5 4 -4 7 -3 12 1 12 10 0 49 -62 45 -72 -1 -5 2 -8 8 -8 5 0 26 -32
46 -71 25 -51 34 -79 29 -98 -4 -17 -3 -21 3 -12 15 21 42 -74 41 -143 l-1
-61 -15 55 c-8 30 -18 57 -21 60 -23 17 -93 111 -88 119 3 5 -2 15 -12 22 -15
13 -16 12 -3 -3 8 -11 9 -18 3 -18 -17 0 -61 71 -55 89 4 13 3 13 -5 2 -8 -11
-12 -10 -20 5 -5 11 -10 24 -11 29 -1 6 -4 10 -9 10 -4 0 -28 17 -53 37 -57
47 -94 62 -211 88 -70 16 -111 32 -166 65 -65 40 -79 45 -133 45 -72 0 -112
-16 -161 -64 -23 -22 -43 -34 -52 -30 -9 3 -16 1 -16 -6 0 -6 5 -8 10 -5 6 3
10 2 10 -4 0 -11 -79 -81 -92 -81 -5 0 -39 -14 -76 -32 -37 -18 -71 -34 -77
-37 -5 -2 -3 4 5 15 14 18 14 18 -3 5 -9 -8 -15 -16 -12 -19 3 -3 -3 -15 -13
-26 -41 -46 -52 -104 -53 -271 -1 -155 -14 -453 -17 -407 -1 12 -13 78 -27
145 -67 334 -77 472 -40 565 21 51 108 134 132 125 10 -4 14 -2 10 5 -5 6 14
17 50 27 60 18 99 51 158 136 17 24 57 62 89 83 47 32 69 40 107 40 26 1 42 4
36 8 -23 15 53 8 95 -9z"/>
<path d="M7477 14626 c-24 -17 -37 -21 -41 -13 -2 7 -5 2 -5 -9 -1 -21 4 -22
72 -21 120 2 178 -44 280 -222 66 -115 89 -145 130 -165 67 -31 136 -14 204
50 19 18 36 32 38 31 2 -1 6 1 9 6 3 4 3 5 0 2 -4 -2 -15 0 -25 6 -15 7 -19 7
-17 -3 2 -7 -5 -13 -15 -13 -10 0 -21 -5 -25 -12 -4 -6 -25 -14 -47 -16 -22
-3 -44 -6 -50 -7 -21 -4 -56 13 -51 26 3 7 -6 20 -20 29 -28 18 -98 160 -88
177 4 7 3 8 -4 4 -6 -4 -17 5 -26 22 -8 16 -22 34 -30 41 -9 7 -13 17 -10 22
3 5 2 8 -3 7 -4 -2 -24 9 -44 24 -82 63 -170 76 -232 34z m157 -6 c32 -12 106
-69 106 -82 0 -5 -6 -6 -12 -2 -10 6 -9 3 0 -8 8 -9 19 -15 26 -12 7 3 27 -23
49 -62 38 -69 45 -90 25 -78 -7 4 -8 3 -4 -5 4 -6 11 -9 15 -6 5 2 17 -14 27
-37 17 -38 74 -118 74 -104 0 4 8 3 18 -2 11 -6 34 -5 65 3 54 14 59 12 17
-10 -48 -25 -152 -12 -134 17 4 6 3 8 -3 5 -17 -11 -55 35 -101 120 -24 44
-65 106 -92 139 -34 41 -45 61 -37 67 8 6 5 7 -6 3 -10 -3 -35 2 -55 13 -50
25 -97 32 -127 21 -33 -12 -32 -4 1 13 33 17 112 21 148 7z"/>
<path d="M7025 14611 c-60 -10 -146 -53 -185 -93 -46 -46 -74 -81 -78 -99 -2
-8 -8 -16 -13 -17 -5 -2 -6 -8 -3 -14 3 -5 -2 -16 -12 -24 -11 -9 -14 -13 -8
-10 14 7 6 -93 -10 -113 -9 -12 -8 -13 2 -7 11 7 13 -4 10 -57 -1 -36 0 -63 5
-60 4 2 7 -3 7 -12 0 -10 -5 -13 -12 -9 -8 4 -10 3 -5 -2 5 -5 14 -9 20 -9 7
0 12 -10 12 -22 0 -13 5 -23 10 -22 6 0 9 11 8 25 -1 16 2 22 10 18 8 -5 8 -3
0 7 -18 18 -16 49 2 49 8 0 15 5 15 10 0 6 -6 9 -12 8 -7 -2 -13 3 -12 10 1 6
2 21 3 33 0 11 5 18 10 15 5 -4 7 3 4 14 -13 49 62 172 144 236 91 72 172 109
257 118 15 2 19 26 4 26 -7 1 -40 2 -73 4 -33 2 -78 1 -100 -3z m74 -29 c-31
-9 -63 -23 -72 -30 -9 -8 -21 -11 -27 -7 -6 4 -9 1 -8 -6 2 -6 -3 -14 -11 -17
-9 -3 -11 0 -6 9 5 8 4 11 -1 6 -5 -5 -9 -12 -9 -16 0 -13 -96 -92 -105 -86
-4 3 -14 -3 -21 -13 -13 -15 -12 -16 4 -3 25 20 21 5 -14 -45 -39 -57 -72
-171 -67 -235 1 -26 0 -45 -4 -41 -3 4 -8 49 -11 100 -4 90 12 184 41 239 16
29 108 112 139 125 80 32 103 37 163 37 l65 -1 -56 -16z"/>
<path d="M3322 14445 c-90 -39 -149 -126 -196 -290 -30 -104 -104 -265 -120
-262 -6 1 -10 -4 -8 -11 1 -7 -12 -39 -29 -72 -38 -74 -30 -92 19 -45 20 19
52 41 70 47 39 15 95 100 162 248 23 52 45 97 49 100 3 3 7 12 9 20 6 31 68
111 104 135 33 22 43 24 79 16 23 -5 55 -22 71 -38 41 -38 81 -102 74 -118 -3
-9 2 -13 14 -12 14 1 16 5 9 13 -7 8 -7 14 0 18 5 4 8 28 7 54 -6 76 -69 170
-135 198 -43 18 -136 17 -179 -1z m201 -32 c23 -16 41 -37 41 -46 -1 -9 2 -14
7 -12 14 10 49 -72 49 -116 0 -43 -5 -50 -12 -15 -1 11 -22 37 -45 59 -24 22
-40 44 -36 51 3 6 3 8 -1 5 -4 -4 -26 -1 -50 6 -35 11 -48 10 -75 -1 -41 -17
-44 -17 -35 -1 4 7 3 9 -2 4 -5 -5 -9 -12 -9 -15 0 -4 -15 -27 -34 -52 -18
-25 -39 -58 -47 -73 -8 -15 -19 -25 -24 -22 -6 3 -7 0 -5 -8 11 -26 -122 -293
-165 -332 -11 -10 -28 -15 -40 -12 -16 4 -23 -1 -30 -19 -5 -13 -14 -24 -20
-24 -5 0 17 53 50 118 32 64 78 175 101 246 30 93 44 125 51 115 7 -10 8 -8 4
7 -7 25 37 90 86 127 72 55 172 59 241 10z"/>
<path d="M3721 14411 c-16 -17 -31 -43 -33 -59 l-4 -28 42 9 c36 9 49 7 84
-12 60 -31 121 -84 115 -99 -3 -7 -1 -11 4 -8 10 7 53 -38 46 -47 -3 -4 -2 -5
2 -2 10 8 83 -66 77 -77 -3 -5 -1 -7 4 -6 5 2 31 -17 58 -41 63 -56 156 -101
211 -101 23 0 64 9 92 19 27 11 52 17 55 14 3 -4 6 3 6 15 0 23 -8 26 -68 22
-41 -2 -97 16 -114 38 -12 15 -11 16 5 3 11 -9 17 -10 17 -2 0 11 -13 15 -39
12 -8 -2 -10 2 -5 10 4 7 3 10 -3 6 -5 -3 -45 33 -89 80 -202 219 -274 272
-380 281 -50 4 -56 2 -83 -27z m141 -2 c34 -11 76 -32 92 -46 79 -65 213 -203
199 -203 -4 0 0 -5 10 -11 9 -6 14 -16 11 -22 -4 -7 -4 -9 1 -5 5 5 34 -17 66
-47 63 -60 91 -75 159 -84 l45 -7 -55 -16 c-44 -13 -65 -15 -102 -7 -27 6 -48
15 -48 20 0 5 -7 9 -16 9 -41 0 -253 197 -238 221 4 7 3 9 -3 6 -13 -8 -57 38
-49 51 3 6 -2 8 -12 5 -11 -2 -26 5 -37 19 -13 15 -14 18 -3 10 12 -10 18 -10
24 -1 4 7 3 9 -4 5 -6 -3 -13 -2 -17 4 -4 6 -11 8 -16 5 -5 -4 -21 3 -35 14
-33 26 -74 34 -107 22 -32 -12 -35 -2 -11 35 10 14 23 23 31 20 8 -3 12 -2 8
3 -5 9 10 19 33 20 7 1 40 -8 74 -20z"/>
<path d="M6870 14295 c-7 -33 -16 -77 -20 -97 -13 -64 -10 -279 4 -353 37
-187 81 -277 190 -389 76 -77 130 -116 163 -116 8 0 11 -5 8 -10 -4 -6 -3 -9
2 -8 13 3 57 -14 65 -26 5 -8 8 -8 8 0 0 6 -24 28 -54 48 -30 21 -73 61 -95
90 -120 155 -214 461 -237 768 -3 47 -9 101 -13 120 -7 32 -8 31 -21 -27z m16
-84 c6 -122 49 -357 85 -463 16 -48 26 -95 23 -105 -4 -12 -3 -14 3 -5 7 8 19
-10 41 -61 18 -40 57 -105 87 -145 51 -67 52 -72 24 -55 -50 29 -166 162 -204
234 -72 136 -104 365 -81 577 9 77 19 88 22 23z"/>
<path d="M7950 14118 c-1 -69 -55 -353 -86 -453 -44 -140 -120 -265 -183 -301
-14 -8 -44 -25 -65 -37 -60 -33 -57 -45 10 -36 68 9 147 46 195 92 38 36 109
148 109 172 0 7 3 21 6 30 6 13 9 14 16 3 7 -9 8 -8 4 6 -4 10 -2 54 4 98 6
43 12 128 12 189 1 84 5 112 16 118 12 7 12 9 -2 14 -9 4 -16 17 -15 29 1 22
1 22 9 -2 8 -25 11 -22 15 17 1 14 -2 20 -11 16 -10 -3 -14 3 -14 20 0 14 -4
29 -10 32 -5 3 -10 0 -10 -7z m10 -195 c0 -100 -22 -301 -30 -278 -3 10 -6 -4
-6 -31 -1 -129 -148 -286 -289 -307 l-40 -6 50 25 c138 68 229 253 291 587 9
48 18 87 20 87 2 0 4 -35 4 -77z"/>
<path d="M3190 13876 c-100 -51 -110 -73 -43 -92 39 -12 46 -10 101 17 l59 30
72 -24 72 -24 -17 26 c-38 60 -105 111 -146 111 -7 0 -51 -20 -98 -44z"/>
<path d="M3791 13898 c-52 -9 -82 -27 -109 -66 -23 -32 -18 -46 18 -49 14 -1
19 1 12 4 -18 7 61 43 93 43 13 0 36 -5 52 -11 15 -6 54 -14 85 -18 52 -7 57
-6 60 14 4 18 -5 27 -46 48 -70 35 -113 45 -165 35z"/>
<path d="M4095 13874 c-8 -20 -20 -54 -26 -76 -6 -22 -15 -48 -20 -57 -5 -9
-33 -92 -64 -185 -30 -93 -73 -203 -95 -244 -47 -86 -133 -177 -158 -167 -9 3
-13 3 -9 -1 18 -18 -39 -35 -136 -41 -99 -6 -105 -5 -167 25 -36 16 -85 50
-110 74 -90 85 -193 248 -230 363 -7 22 -20 56 -28 75 -9 19 -16 37 -17 40 -6
21 -19 40 -25 40 -5 0 -4 -15 1 -32 5 -18 9 -49 9 -69 0 -30 17 -108 46 -208
6 -18 4 -22 -6 -16 -9 5 -11 4 -6 -4 4 -6 11 -9 16 -6 11 7 33 -51 24 -66 -4
-7 -3 -10 3 -6 13 8 56 -60 47 -74 -3 -5 -2 -8 3 -7 4 1 42 -31 84 -73 118
-117 242 -167 384 -156 102 8 174 45 254 130 19 20 39 33 44 30 6 -3 7 -2 4 4
-4 6 7 31 23 56 33 53 79 177 105 284 10 40 21 70 26 68 4 -3 6 5 4 17 -3 12
0 39 5 60 21 75 46 238 38 238 -5 0 -6 5 -3 10 3 6 4 10 1 10 -3 0 -12 -16
-21 -36z m-35 -240 c-69 -290 -117 -409 -201 -493 -102 -101 -201 -138 -330
-122 -39 5 -76 14 -82 20 -6 6 -18 11 -27 11 -20 0 -140 71 -140 82 0 5 6 6
13 2 7 -4 9 -3 4 2 -5 5 -12 9 -16 9 -13 0 -83 67 -114 108 -52 68 -106 209
-121 312 -3 22 -3 33 1 25 27 -66 118 -238 143 -270 17 -22 29 -44 25 -50 -4
-6 -3 -9 2 -8 11 3 129 -112 126 -123 -2 -5 5 -5 14 -2 12 5 14 3 8 -7 -5 -8
-4 -11 2 -7 6 4 27 -2 47 -12 80 -41 248 -34 332 14 46 27 115 98 139 144 9
19 20 29 27 25 7 -4 8 -3 4 5 -4 6 3 34 15 61 19 42 25 48 37 37 13 -10 14 -9
2 9 -11 18 -8 32 19 105 17 47 31 89 31 94 0 19 65 186 68 173 2 -9 -11 -73
-28 -144z"/>
<path d="M7928 13373 c4 -168 44 -304 121 -417 11 -17 18 -33 15 -38 -3 -4 2
-5 10 -2 9 3 16 2 16 -4 0 -5 27 -29 59 -53 33 -24 57 -48 54 -53 -3 -5 -1 -6
5 -3 15 10 43 -3 35 -16 -3 -5 -1 -7 4 -4 6 4 44 -8 84 -27 41 -19 139 -55
217 -80 79 -25 149 -49 155 -53 7 -4 20 -6 31 -4 12 2 16 -1 11 -10 -6 -8 -4
-10 4 -5 7 5 28 5 46 2 27 -5 33 -10 28 -24 -6 -15 -5 -15 10 -3 10 8 24 10
34 5 24 -10 20 -9 91 -24 35 -7 70 -19 77 -27 15 -14 28 -4 17 13 -4 6 -38 26
-75 45 -38 18 -64 35 -58 37 5 2 19 -2 30 -8 17 -8 19 -8 15 4 -3 9 -18 13
-41 12 -27 -1 -73 16 -172 65 -75 36 -189 87 -254 114 -84 34 -114 51 -105 58
9 6 8 7 -5 3 -24 -8 -159 62 -150 77 3 5 2 7 -4 4 -6 -4 -30 13 -55 36 -59 56
-113 134 -76 111 7 -4 8 -3 4 5 -4 6 -11 9 -16 6 -12 -7 -110 204 -110 238 0
4 -7 23 -15 43 -8 20 -15 47 -15 60 0 13 -6 24 -12 24 -10 0 -12 -27 -10 -107z
m32 -3 c0 -11 11 -48 24 -83 16 -42 21 -69 15 -79 -6 -11 -3 -20 9 -29 15 -13
16 -12 4 3 -7 9 -9 19 -4 22 5 3 19 -16 31 -42 86 -179 174 -246 497 -380 116
-49 266 -122 291 -142 6 -5 24 -12 40 -16 29 -7 103 -42 103 -48 0 -2 -28 5
-62 15 -35 11 -90 26 -123 33 -33 8 -109 29 -169 47 -83 25 -105 35 -90 41 14
6 12 7 -8 3 -48 -9 -337 117 -331 144 2 6 -3 8 -10 5 -15 -5 -99 75 -91 88 3
4 0 7 -8 6 -19 -4 -104 171 -117 244 -16 87 -22 200 -10 193 5 -4 9 -15 9 -25z"/>
<path d="M7023 13279 c-13 -5 -23 -14 -23 -21 0 -9 3 -9 10 2 5 8 10 10 10 5
0 -6 -11 -22 -25 -37 -17 -19 -21 -29 -13 -34 7 -4 13 -3 15 3 2 6 10 19 18
29 16 21 -16 -69 -42 -120 -24 -47 -55 -86 -64 -80 -4 2 -11 -1 -15 -7 -4 -8
-3 -9 4 -5 7 4 12 3 12 -3 0 -17 -103 -92 -180 -131 -41 -21 -109 -45 -150
-54 -41 -9 -88 -21 -105 -26 -16 -5 -66 -14 -110 -20 -173 -24 -209 -32 -308
-64 -56 -19 -111 -37 -122 -41 -11 -3 -8 1 8 10 37 21 35 29 -3 10 -17 -9 -28
-20 -24 -26 3 -6 0 -9 -7 -8 -8 2 -24 -2 -37 -9 -12 -7 -31 -10 -41 -7 -13 4
-27 -4 -45 -25 -14 -18 -26 -37 -26 -43 0 -7 5 -4 11 6 7 12 17 16 32 12 16
-5 18 -4 8 3 -15 11 2 27 18 18 5 -4 11 0 14 6 3 10 9 10 25 1 17 -10 20 -10
16 0 -6 15 139 72 157 61 7 -4 10 -3 6 3 -10 15 204 73 272 73 21 0 83 9 137
20 220 45 336 97 437 195 29 27 56 48 60 47 5 -1 6 1 3 6 -2 4 6 26 18 48 31
55 78 180 74 198 -2 10 -9 11 -25 5z"/>
<path d="M6933 13145 c-27 -29 -46 -43 -56 -39 -8 3 -18 1 -22 -5 -4 -7 1 -9
12 -5 16 5 -3 -15 -55 -57 -55 -45 -323 -139 -357 -125 -9 3 -14 2 -11 -3 3
-5 -15 -12 -39 -16 -25 -3 -89 -17 -143 -31 -53 -13 -102 -22 -110 -19 -7 2
-11 1 -8 -3 5 -8 -94 -49 -103 -43 -2 1 -7 -1 -10 -6 -3 -5 -50 -38 -104 -72
-54 -35 -96 -65 -94 -68 2 -2 58 28 123 67 119 71 232 115 359 140 132 26 296
70 374 100 83 32 223 127 248 169 7 11 19 18 27 15 16 -6 31 25 18 38 -6 6
-26 -10 -49 -37z"/>
<path d="M7080 13177 c0 -9 65 -126 97 -175 42 -63 121 -134 183 -164 68 -34
185 -32 263 4 62 29 177 113 177 129 0 6 6 7 13 3 6 -4 9 -4 5 1 -4 4 6 26 22
48 17 23 30 49 30 60 0 10 4 15 10 12 6 -4 7 1 3 11 -5 14 -7 14 -14 1 -28
-49 -247 -191 -325 -212 -61 -16 -84 -13 -154 18 -52 22 -71 39 -188 160 -75
77 -122 117 -122 104z m93 -101 c15 -18 23 -37 19 -41 -4 -5 -2 -5 4 -2 14 8
67 -46 57 -58 -5 -4 -2 -5 5 -1 14 8 57 -29 57 -49 0 -5 7 -10 15 -10 25 0 80
-27 74 -36 -8 -14 95 -11 153 4 53 14 248 130 257 152 3 8 14 19 25 25 37 19
-54 -92 -111 -136 -88 -69 -133 -87 -225 -92 -73 -4 -86 -2 -138 23 -52 26
-150 105 -150 123 0 4 -8 16 -18 28 -29 33 -69 104 -59 104 5 0 21 -15 35 -34z"/>
<path d="M3126 13115 c-3 -9 -3 -22 1 -28 3 -7 3 -9 -1 -5 -4 3 -28 -34 -52
-83 -25 -49 -50 -88 -57 -86 -6 1 -11 -7 -12 -18 0 -11 -5 -19 -12 -18 -7 2
-10 -3 -8 -10 7 -17 -50 -81 -64 -73 -7 5 -10 2 -9 -6 2 -7 -4 -12 -12 -10 -8
2 -12 0 -7 -4 4 -4 -5 -20 -20 -36 -19 -20 -33 -26 -52 -23 -21 4 -22 4 -6 -3
18 -8 17 -10 -13 -26 -18 -9 -37 -14 -43 -11 -5 4 -8 1 -7 -5 3 -13 -71 -42
-90 -35 -7 3 -11 1 -8 -4 7 -11 -52 -21 -121 -21 -44 0 -53 3 -53 18 -1 15 -2
15 -10 1 -11 -19 -90 -25 -103 -7 -6 9 -7 8 -3 -5 5 -16 1 -18 -32 -16 -20 1
-44 -1 -52 -3 -8 -3 -33 -11 -55 -18 -56 -18 -123 -68 -172 -128 -22 -28 -44
-49 -47 -46 -3 2 -4 1 -1 -2 7 -10 -25 -65 -35 -59 -5 3 -12 0 -16 -6 -4 -8
-3 -9 4 -5 7 4 12 5 12 3 0 -10 -32 -67 -41 -72 -16 -10 -10 -26 8 -23 17 3
45 41 41 56 -6 23 78 139 96 134 6 -2 8 0 4 4 -14 14 53 83 105 108 70 32 150
46 274 46 124 0 238 22 307 58 69 36 70 37 61 21 -5 -8 -4 -11 1 -6 5 5 9 14
9 20 0 5 6 12 14 15 8 3 11 0 7 -7 -5 -7 -1 -8 10 -4 12 4 14 8 6 11 -12 4
127 149 138 145 3 -1 7 8 7 19 1 11 11 30 21 42 11 11 34 50 51 86 23 47 31
58 31 39 0 -36 -26 -131 -51 -186 -27 -58 -87 -135 -100 -128 -5 4 -6 0 -3 -8
12 -33 -200 -161 -268 -161 -21 0 -32 -4 -25 -8 15 -10 33 -8 -203 -19 -257
-12 -259 -12 -254 -21 5 -8 -76 -44 -89 -40 -5 1 -6 -2 -3 -6 8 -14 -31 -45
-48 -39 -10 4 -13 1 -10 -7 3 -7 -3 -19 -13 -27 -17 -13 -17 -13 -3 6 15 20
14 20 -8 1 -12 -11 -20 -22 -17 -24 3 -3 -7 -18 -22 -34 -15 -15 -22 -28 -17
-28 6 0 21 11 34 25 12 13 27 22 32 19 5 -3 7 0 6 7 -2 6 3 14 11 17 9 3 11 0
6 -8 -5 -8 -4 -11 3 -6 6 4 9 12 7 19 -6 15 81 81 95 72 6 -4 9 -1 8 5 -2 6
24 21 57 32 49 17 85 20 195 20 235 -1 353 34 492 144 121 98 186 221 207 399
8 66 1 106 -13 70z"/>
<path d="M3850 12928 c0 -57 28 -166 65 -245 18 -39 30 -75 27 -79 -4 -4 -2
-4 4 -1 11 7 29 -19 25 -36 -1 -5 2 -7 6 -4 5 2 24 -15 43 -38 43 -51 126
-102 199 -121 35 -9 106 -14 197 -14 145 0 207 -6 199 -20 -3 -5 4 -6 14 -3
24 6 64 -15 55 -29 -4 -7 -3 -8 4 -4 7 4 20 2 29 -3 10 -6 14 -11 9 -11 -4 0
6 -16 23 -35 34 -39 38 -51 19 -58 -7 -2 -5 -3 5 -1 11 1 23 -9 32 -26 17 -33
19 -54 5 -45 -18 11 -11 -32 8 -46 15 -13 16 -12 4 3 -7 9 -9 19 -4 22 12 7
22 -3 22 -25 0 -9 9 -19 20 -22 18 -5 18 -3 4 19 -9 13 -13 27 -10 32 7 12
-17 108 -42 164 -12 26 -40 68 -62 92 -71 77 -158 106 -319 106 -208 0 -293
38 -424 189 -21 24 -36 50 -33 58 3 8 1 11 -4 8 -12 -7 -54 59 -91 144 -28 64
-28 65 -29 29z m152 -255 c18 -19 27 -36 23 -44 -5 -7 -4 -10 2 -6 6 4 30 -12
54 -34 77 -71 131 -89 303 -100 180 -11 237 -22 291 -54 51 -30 118 -110 118
-141 0 -13 3 -21 7 -19 4 3 11 -7 14 -23 4 -15 9 -36 12 -47 3 -11 -8 3 -24
31 -40 72 -72 114 -84 114 -5 0 -22 8 -36 18 -47 31 -120 42 -282 41 -139 -2
-161 1 -213 21 -148 57 -246 188 -312 420 -4 14 16 -13 44 -60 29 -47 66 -99
83 -117z"/>
<path d="M8030 12852 c-16 -41 -21 -65 -22 -100 0 -13 -3 -21 -6 -17 -14 14
-86 -212 -117 -370 -5 -22 -9 -44 -11 -50 -1 -5 -7 -44 -14 -85 -6 -41 -15
-95 -20 -120 -10 -52 -13 -78 -36 -335 -26 -287 -25 -940 1 -1170 24 -212 48
-350 64 -359 3 -2 6 159 7 357 3 1129 21 1433 114 1927 35 184 62 352 57 356
-2 2 -10 -13 -17 -34z m-40 -237 c-23 -117 -59 -329 -65 -380 -2 -22 -9 -78
-15 -125 -24 -201 -42 -638 -47 -1183 -3 -318 -7 -576 -9 -575 -1 2 -8 44 -14
93 -6 50 -13 101 -15 114 -31 191 -31 1023 -1 1296 35 322 83 585 138 755 41
130 54 132 28 5z"/>
<path d="M6876 12775 c-4 -20 -15 -50 -26 -68 -48 -84 -92 -300 -92 -452 1
-111 9 -168 57 -395 31 -145 48 -258 85 -555 29 -231 39 -731 20 -985 -8 -111
-7 -130 6 -118 6 7 51 220 59 283 29 221 39 555 24 763 -10 142 -42 363 -80
552 -57 289 -82 485 -75 605 7 127 12 178 32 294 16 98 17 111 5 111 -5 0 -12
-16 -15 -35z m-27 -229 c-17 -140 -18 -248 -4 -336 7 -41 16 -93 19 -115 13
-94 37 -231 65 -383 17 -90 38 -218 47 -285 20 -157 29 -544 16 -717 -12 -154
-39 -361 -52 -405 -9 -26 -9 -25 -4 10 10 63 12 556 3 695 -13 200 -29 368
-45 470 -21 133 -22 139 -29 195 -5 43 -33 187 -65 335 -45 206 -34 404 33
615 28 87 33 60 16 -79z"/>
<path d="M7250 12777 c-83 -31 -136 -62 -192 -112 -43 -39 -87 -95 -74 -95 13
0 56 32 52 39 -7 10 4 23 51 59 24 19 48 30 54 26 7 -4 9 -3 6 3 -17 27 170
94 243 87 115 -10 146 -17 191 -40 27 -13 47 -29 44 -34 -3 -5 0 -8 7 -5 14 6
111 -59 102 -68 -3 -3 -33 10 -67 28 -34 18 -97 45 -140 60 -108 38 -197 33
-315 -18 -96 -41 -176 -86 -168 -95 4 -3 19 3 34 14 44 33 197 94 259 105 59
10 183 -5 183 -23 0 -4 6 -5 14 -2 11 4 12 -3 5 -40 -25 -134 -85 -187 -176
-155 -30 10 -55 51 -100 164 -10 25 -12 27 -12 8 -1 -12 -5 -24 -9 -27 -17
-10 -14 -124 4 -161 20 -42 85 -79 154 -90 63 -9 125 25 158 86 20 37 23 54
19 107 -3 34 -10 69 -17 77 -7 9 -10 18 -7 22 7 7 99 -37 172 -81 27 -17 54
-32 60 -33 5 -1 21 -5 34 -9 25 -7 25 -7 5 13 -47 49 -176 142 -239 172 -60
29 -81 34 -169 38 -89 3 -109 1 -166 -20z m310 -243 c-24 -84 -91 -125 -177
-109 -90 17 -133 66 -133 153 0 28 4 52 9 52 5 0 18 -23 30 -50 12 -28 33 -60
46 -72 13 -11 22 -25 21 -32 -2 -6 -1 -8 1 -3 3 4 20 7 39 7 60 0 124 46 131
93 2 12 8 24 13 25 6 2 11 18 11 35 1 30 2 29 12 -10 7 -31 6 -55 -3 -89z"/>
<path d="M6410 12709 c0 -21 49 -93 58 -84 3 2 11 -3 18 -13 21 -29 -1 -48
-86 -73 -44 -12 -80 -28 -80 -33 0 -14 31 -148 76 -333 20 -78 32 -148 28
-154 -4 -7 -3 -9 3 -6 5 3 25 -58 47 -146 21 -84 48 -189 62 -234 16 -56 23
-96 19 -125 -3 -26 -2 -34 3 -19 5 18 15 -11 41 -120 19 -79 36 -153 37 -164
2 -11 11 -49 19 -85 9 -36 25 -117 35 -180 11 -63 28 -148 37 -187 9 -40 14
-76 11 -79 -4 -3 -9 10 -13 28 -4 18 -23 87 -42 153 -50 170 -53 186 -46 228
3 22 1 37 -4 37 -6 0 -8 -12 -5 -27 11 -62 -8 -11 -33 87 -59 230 -75 305 -70
318 2 7 1 11 -4 7 -5 -3 -16 23 -25 57 -8 35 -22 88 -30 118 -9 30 -27 100
-40 155 -14 55 -36 141 -50 191 -53 199 -97 461 -83 498 5 12 14 17 27 13 11
-3 18 -1 15 4 -8 12 48 38 100 46 25 3 45 9 45 13 0 7 -22 6 -70 -3 -43 -8
-103 -37 -123 -58 -19 -20 -19 -24 -2 -137 17 -123 53 -295 87 -422 11 -41 37
-142 59 -225 22 -82 62 -238 90 -345 28 -107 57 -220 64 -250 7 -30 29 -113
50 -185 20 -71 42 -148 48 -170 5 -22 20 -71 33 -110 12 -38 25 -82 28 -97 4
-16 10 -28 15 -28 6 0 6 13 1 31 -5 18 -7 36 -4 40 2 5 -2 46 -10 91 -9 46
-18 101 -20 123 -3 22 -15 81 -26 130 -26 114 -60 274 -64 300 -4 21 -57 234
-103 410 -14 55 -27 109 -28 120 -1 11 -5 27 -9 35 -9 22 -94 350 -100 386 -3
18 -17 79 -31 138 -14 58 -25 112 -25 121 0 8 17 19 43 25 113 30 132 44 123
88 -7 27 -74 121 -88 122 -5 0 -8 -9 -8 -21z"/>
<path d="M8569 12529 c-7 -13 -7 -19 -1 -15 15 9 122 -45 122 -62 0 -7 -4 -11
-9 -8 -5 3 -9 0 -8 -7 0 -6 -1 -21 -2 -32 -1 -17 -3 -18 -12 -5 -9 13 -10 12
-5 -3 7 -22 -77 -191 -89 -180 -4 5 -5 2 -1 -5 10 -17 -22 -84 -36 -76 -7 5
-8 2 -3 -6 5 -7 -2 -34 -17 -64 -128 -261 -208 -472 -330 -876 -24 -80 -64
-248 -84 -355 -8 -44 -19 -100 -24 -125 -6 -25 -15 -79 -20 -120 -6 -41 -12
-85 -14 -98 -2 -12 1 -25 5 -28 5 -3 9 4 9 14 0 11 7 36 15 55 10 23 11 37 4
39 -6 2 -8 15 -3 33 6 25 8 27 14 10 8 -23 12 -11 100 300 76 270 192 630 255
790 73 186 187 445 194 441 3 -2 7 8 8 22 1 15 15 54 31 87 16 33 39 88 51
122 13 35 27 60 31 58 5 -3 12 0 16 6 4 8 3 9 -4 5 -8 -5 -12 1 -12 16 0 28
-26 46 -100 70 -69 22 -67 22 -81 -3z m161 -85 c0 -8 -4 -12 -10 -9 -6 3 -10
-5 -10 -19 0 -33 -10 -57 -21 -50 -5 3 -6 -1 -3 -9 4 -12 -48 -141 -130 -319
-14 -31 -26 -59 -26 -62 0 -3 -13 -33 -29 -68 -16 -35 -41 -96 -56 -137 -20
-54 -30 -69 -37 -60 -7 10 -8 9 -4 -5 9 -26 -55 -209 -67 -193 -6 8 -7 5 -3
-7 8 -23 -22 -118 -34 -111 -4 3 -6 -3 -4 -12 6 -24 -51 -195 -61 -185 -5 4
-5 2 -1 -5 6 -11 -16 -107 -53 -228 -26 -82 -56 -188 -77 -262 -19 -71 -36
-86 -23 -20 5 23 21 101 35 172 35 183 49 237 110 435 70 229 114 358 153 450
18 41 39 92 48 112 9 21 19 35 23 33 4 -3 8 1 7 8 -1 32 4 48 13 42 5 -3 8 0
5 7 -3 7 23 72 58 143 35 72 90 185 122 253 55 115 75 143 75 106z"/>
<path d="M3038 12504 c-2 -2 -20 -4 -39 -6 -54 -3 -52 -20 4 -41 154 -57 221
-77 237 -72 13 4 21 -2 27 -22 8 -22 11 -24 16 -10 3 9 2 17 -3 17 -5 0 -7 6
-4 14 11 30 -84 88 -183 112 -28 6 -53 10 -55 8z"/>
<path d="M5895 12428 c5 -46 4 -59 -4 -48 -9 12 -10 11 -8 -7 2 -12 7 -26 12
-30 4 -5 5 -2 0 6 -5 9 -4 12 2 8 9 -6 19 -45 29 -121 2 -16 8 -45 13 -65 6
-20 20 -81 31 -136 12 -55 23 -109 26 -120 27 -112 64 -453 64 -591 0 -189
-30 -456 -111 -979 -32 -213 -58 -387 -74 -510 -12 -83 -27 -192 -36 -255 -5
-36 -16 -137 -24 -225 -8 -88 -20 -185 -25 -215 -5 -30 -17 -107 -25 -170 -8
-63 -21 -158 -30 -210 -95 -587 -107 -730 -80 -965 16 -142 20 -294 11 -360
-3 -16 -12 -70 -20 -119 -9 -49 -14 -91 -12 -93 12 -13 29 38 32 95 1 37 6 78
11 92 10 31 10 314 0 355 -15 59 -20 319 -8 435 12 107 20 168 71 485 10 66
26 170 34 230 9 61 23 158 31 216 15 104 20 146 25 224 2 36 3 37 10 15 5 -16
7 -5 3 30 -6 65 2 138 73 620 9 58 22 148 29 200 8 52 32 217 54 365 68 454
74 531 68 790 -3 127 -12 275 -21 330 -29 194 -27 180 -70 375 -27 121 -58
301 -53 307 7 7 113 -428 148 -607 27 -144 34 -258 33 -580 0 -315 -10 -455
-60 -810 -8 -63 -17 -131 -20 -150 -7 -62 -34 -252 -49 -345 -14 -89 -55 -381
-75 -545 -6 -47 -15 -114 -20 -150 -5 -36 -16 -119 -25 -185 -9 -66 -27 -190
-41 -275 -13 -85 -29 -186 -35 -225 -6 -38 -17 -106 -24 -150 -29 -172 -47
-409 -42 -554 5 -153 -8 -358 -28 -449 -10 -46 2 -39 15 8 18 68 21 103 29
440 10 342 10 355 41 545 11 66 22 138 25 160 6 45 26 172 55 355 11 69 22
148 25 175 3 28 10 84 15 125 14 95 17 121 25 195 4 33 13 103 21 155 8 52 19
129 24 170 6 41 19 131 30 200 166 1095 178 1554 51 2100 -43 187 -111 443
-121 455 -8 10 -10 16 -10 35 0 6 -5 10 -10 10 -7 0 -9 -22 -5 -62z"/>
<path d="M9218 12403 c10 -4 9 -10 -5 -26 -10 -11 -12 -17 -5 -13 8 5 12 -2
12 -24 0 -22 -4 -29 -12 -24 -10 6 -10 5 -2 -7 17 -21 22 -119 7 -119 -7 0
-13 -4 -13 -10 0 -5 6 -7 13 -4 10 3 16 -31 26 -148 7 -84 14 -180 17 -213 3
-33 9 -85 15 -115 5 -30 12 -82 15 -115 3 -33 12 -100 19 -150 8 -49 21 -148
30 -220 8 -71 23 -180 31 -242 9 -62 14 -122 11 -133 -3 -11 -2 -18 3 -15 10
6 24 -150 14 -166 -4 -8 -3 -10 4 -5 7 4 12 1 12 -6 0 -13 24 -180 34 -230 2
-14 7 -52 11 -84 3 -33 8 -70 11 -83 9 -44 24 -1 24 71 0 37 5 70 10 73 7 5 8
11 1 19 -5 6 -11 60 -13 119 -2 90 -1 107 12 107 12 1 11 3 -2 11 -14 8 -18
24 -18 77 0 85 -18 336 -27 370 -4 18 -3 23 7 17 9 -6 10 -3 1 13 -6 11 -11
34 -11 51 0 89 -75 574 -125 814 -14 65 -23 122 -20 127 3 5 1 11 -4 14 -13 9
-62 220 -57 248 3 19 -1 24 -18 25 -11 0 -15 -1 -8 -4z m98 -443 c24 -118 51
-264 60 -325 37 -266 54 -414 54 -465 0 -30 5 -73 10 -95 12 -52 43 -742 33
-731 -3 3 -31 183 -54 346 -5 41 -12 84 -15 95 -4 16 -3 17 5 5 6 -8 11 -10
11 -5 0 6 -4 15 -9 20 -8 9 -42 245 -56 390 -3 33 -8 67 -10 75 -18 64 -93
726 -109 970 l-5 75 20 -70 c11 -38 40 -167 65 -285z"/>
<path d="M9043 12388 c-13 -18 -26 -49 -29 -73 -7 -52 -49 -155 -63 -155 -11
0 -12 -3 -4 -8 8 -5 3 -28 -19 -82 -43 -108 -114 -315 -158 -465 -59 -199 -66
-353 -31 -725 6 -63 15 -180 21 -260 5 -80 21 -289 35 -465 45 -590 76 -1240
75 -1579 -1 -314 -22 -654 -50 -801 -6 -27 -17 -102 -25 -165 -29 -209 -72
-358 -131 -451 -14 -22 -22 -45 -18 -52 4 -7 4 -9 -1 -5 -4 4 -14 0 -21 -10
-12 -14 -13 -7 -9 53 3 39 8 86 10 105 8 55 14 125 25 265 5 72 12 155 15 185
l5 55 -24 -50 c-63 -133 -160 -581 -235 -1095 -11 -74 -27 -180 -36 -235 -30
-195 -50 -387 -70 -665 -17 -239 -17 -246 -8 -236 10 10 13 32 18 116 7 152
27 395 32 403 3 5 10 3 15 -4 8 -11 9 -11 5 1 -2 8 -10 14 -16 12 -8 -1 -10 8
-7 30 3 18 15 105 26 193 22 172 50 356 107 695 46 279 62 352 77 343 7 -5 7
-2 -1 8 -13 16 -6 62 8 53 5 -3 12 2 16 11 3 10 1 20 -5 24 -12 7 -3 51 43
211 25 88 47 143 30 75 -4 -16 -9 -63 -11 -104 -12 -245 -75 -791 -119 -1031
-9 -47 -23 -123 -31 -170 -8 -47 -26 -130 -39 -185 -14 -55 -29 -122 -35 -150
-5 -27 -19 -90 -30 -140 -44 -188 -60 -269 -59 -289 1 -17 2 -18 6 -3 2 9 9
17 14 17 6 0 7 4 4 10 -3 5 3 52 14 102 83 373 99 433 111 430 10 -2 11 0 2
10 -8 10 -6 37 8 103 35 170 69 360 84 470 15 106 19 142 36 270 4 33 5 63 3
68 -2 4 4 10 13 14 46 17 109 85 145 155 53 105 128 422 154 658 8 74 19 173
25 220 27 231 35 890 15 1170 -3 36 -7 101 -10 145 -3 44 -7 114 -10 155 -2
41 -7 118 -10 170 -5 91 -13 178 -35 410 -9 89 -20 229 -55 655 -23 281 -25
560 -6 684 12 76 95 380 114 416 6 11 20 56 31 101 16 60 25 80 36 77 12 -4
12 -3 1 5 -15 11 -7 67 11 78 7 5 8 2 3 -6 -5 -9 -4 -11 3 -6 7 4 12 17 12 29
0 18 -2 20 -11 7 -8 -12 -9 -9 -4 10 7 29 10 42 25 129 11 66 10 80 -7 59z
m-27 -155 c-7 -21 -18 -65 -26 -98 -7 -33 -35 -132 -62 -220 -27 -88 -53 -176
-58 -195 -5 -19 -18 -66 -29 -105 -11 -38 -23 -92 -26 -120 -4 -27 -12 -53
-18 -57 -7 -4 -7 -8 -2 -8 6 0 9 -49 6 -132 -5 -201 25 -629 99 -1428 20 -216
42 -614 48 -870 12 -445 -3 -750 -53 -1160 -22 -176 -78 -429 -120 -545 -14
-39 -25 -71 -25 -73 0 -2 -5 0 -12 4 -7 5 -8 3 -3 -6 5 -8 2 -17 -7 -24 -8 -6
-23 -26 -33 -43 -11 -18 -23 -33 -28 -33 -5 0 1 15 13 33 11 17 29 50 39 72
22 50 68 223 76 290 5 43 38 256 50 323 4 23 7 57 25 237 16 168 4 1088 -19
1490 -11 204 -23 386 -26 405 -2 19 -9 100 -15 180 -18 251 -20 279 -40 535
-51 634 -50 703 9 905 42 146 164 492 181 515 4 6 18 42 30 80 24 73 29 85 35
85 2 0 -2 -17 -9 -37z"/>
<path d="M5705 12353 c-12 -74 -18 -98 -28 -123 -5 -14 -9 -39 -8 -57 2 -32
-8 -37 -37 -19 -7 4 -15 6 -18 4 -2 -3 8 -11 22 -18 29 -16 29 -7 -11 -215
-13 -66 -26 -140 -30 -165 -3 -25 -10 -58 -15 -75 -5 -16 -21 -91 -35 -165
-14 -74 -30 -148 -35 -165 -5 -16 -11 -46 -14 -65 -2 -19 -11 -73 -20 -120
-27 -139 -65 -361 -64 -368 3 -14 -18 -272 -25 -304 -1 -6 3 -12 8 -14 15 -6
38 36 42 76 2 19 15 73 28 120 13 47 31 117 40 155 10 39 33 126 51 195 33
118 88 345 98 400 2 14 9 52 15 85 21 117 41 302 47 435 3 74 7 153 9 175 2
22 4 57 4 77 1 26 6 38 19 41 16 4 16 5 0 6 -10 0 -19 7 -19 14 -7 70 -5 89 7
94 8 3 14 9 14 15 0 5 -4 6 -10 3 -5 -3 -10 -1 -10 4 0 6 -4 11 -10 11 -5 0
-12 -17 -15 -37z m-3 -393 c-5 -58 -12 -114 -16 -125 -7 -17 -6 -17 4 -5 10
12 11 10 6 -10 -4 -14 -11 -71 -16 -126 -15 -168 -66 -395 -196 -879 -25 -93
-52 -199 -59 -235 l-14 -65 5 100 c8 152 31 343 55 447 11 51 27 131 34 178 8
47 32 171 54 275 22 105 59 291 83 414 28 149 45 215 49 200 4 -15 8 8 10 56
l3 80 3 -100 c2 -55 0 -147 -5 -205z"/>
<path d="M7250 12333 c-16 -26 -32 -55 -36 -65 -3 -10 -9 -18 -13 -18 -4 0 -8
-6 -9 -12 0 -7 -17 -52 -36 -100 -43 -105 -82 -237 -96 -322 -15 -100 -23
-304 -11 -286 6 8 11 10 11 4 0 -6 -3 -14 -7 -18 -5 -4 -8 -23 -8 -42 0 -19 3
-34 8 -34 4 0 7 11 7 24 0 13 9 52 19 87 20 67 39 152 46 206 3 18 32 122 64
233 33 110 65 228 71 262 10 54 18 78 38 121 2 4 -2 7 -8 7 -6 0 -24 -21 -40
-47z m-5 -83 c-7 -36 -38 -150 -69 -255 -31 -104 -61 -220 -67 -256 -5 -36
-19 -92 -29 -125 l-20 -59 5 117 c7 183 55 365 147 560 23 48 43 87 44 85 1
-1 -4 -31 -11 -67z"/>
<path d="M7485 12347 c30 -302 30 -1059 0 -1587 -10 -177 -15 -389 -13 -595 3
-367 7 -348 -89 -433 -90 -80 -161 -122 -205 -122 -32 0 -40 5 -60 38 -53 89
-128 149 -128 103 0 -11 5 -23 10 -26 6 -4 7 -12 4 -18 -4 -7 -4 -9 1 -5 9 9
35 -23 63 -78 11 -22 37 -55 57 -72 32 -28 41 -31 90 -29 30 1 50 4 45 5 -6 2
29 24 77 48 93 46 167 102 213 159 15 19 29 32 32 30 2 -2 4 4 5 13 1 9 8 41
17 70 12 42 15 110 16 310 0 141 4 327 10 412 11 170 14 864 5 1055 -3 66 -10
152 -15 190 -5 39 -12 97 -15 130 -11 106 -57 319 -77 354 -10 19 -17 39 -15
46 3 6 -3 16 -13 23 -16 10 -18 7 -15 -21z m37 -91 c-2 -4 0 -11 6 -15 15 -9
51 -186 68 -339 8 -75 19 -243 24 -372 10 -234 4 -891 -9 -1047 -4 -45 -8
-198 -10 -340 -1 -142 -5 -269 -8 -283 -3 -14 -17 -47 -30 -74 -19 -38 -27
-46 -35 -35 -8 11 -9 10 -4 -4 4 -12 -7 -29 -35 -55 -58 -52 -111 -80 -93 -49
4 7 3 9 -2 4 -5 -5 -9 -14 -9 -20 0 -16 -130 -78 -176 -84 -28 -4 -45 0 -67
16 -31 22 -82 99 -82 124 0 8 -12 22 -26 32 -14 9 -23 19 -20 23 9 9 56 -39
77 -80 10 -20 32 -46 48 -57 l29 -21 47 20 c54 23 59 24 49 8 -4 -7 -3 -8 5
-4 6 4 9 11 6 15 -2 5 13 20 34 34 21 14 56 41 77 61 21 20 45 36 53 36 8 0
11 3 8 6 -4 4 3 20 14 35 34 48 37 91 24 386 -7 156 4 488 25 788 12 168 17
1015 8 1205 -4 76 -4 126 1 115 5 -11 6 -24 3 -29z"/>
<path d="M1768 11978 c-55 -72 -61 -77 -71 -71 -6 3 -7 1 -3 -6 8 -13 -52 -88
-67 -83 -5 1 -6 -2 -2 -7 8 -14 -24 -63 -36 -55 -5 3 -8 2 -7 -3 4 -15 -23
-54 -34 -47 -7 4 -8 3 -4 -4 9 -15 -82 -144 -96 -135 -7 3 -8 1 -4 -6 8 -13
-56 -106 -80 -115 -8 -3 -13 -10 -10 -14 3 -5 -2 -18 -10 -28 -9 -10 -12 -12
-8 -4 7 13 5 13 -9 1 -18 -15 -23 -26 -7 -16 20 12 9 -9 -39 -74 -26 -36 -61
-85 -76 -108 -15 -24 -31 -40 -36 -37 -5 3 -9 -3 -9 -13 -1 -24 -85 -135 -95
-125 -5 4 -5 2 -2 -4 8 -14 -67 -116 -78 -106 -5 4 -5 2 -2 -4 6 -11 -44 -94
-59 -97 -5 -1 -8 -6 -6 -10 5 -17 -81 -165 -93 -160 -7 2 -16 -1 -21 -8 -5 -9
-2 -10 9 -6 10 3 17 4 17 1 0 -8 -32 -68 -39 -74 -3 -3 -6 -11 -7 -17 -1 -7
-2 -22 -2 -34 -1 -11 -5 -18 -9 -16 -5 3 -8 -11 -9 -31 0 -57 -10 -142 -17
-148 -3 -4 0 -13 8 -21 8 -8 15 -25 15 -38 0 -19 -4 -23 -17 -18 -16 6 -16 5
-4 -10 7 -9 17 -15 21 -12 11 7 22 -24 13 -38 -3 -7 -3 -9 2 -5 8 8 47 -56 43
-69 -2 -5 1 -9 5 -10 4 -1 27 -26 51 -56 24 -29 61 -66 82 -82 54 -41 73 -62
66 -71 -4 -4 -2 -4 4 -1 14 8 68 -32 101 -75 14 -18 23 -25 20 -15 -8 21 -3
21 28 1 14 -9 22 -21 18 -27 -3 -5 -1 -7 5 -4 12 8 152 -76 165 -98 4 -9 12
-13 17 -10 11 7 110 -61 102 -71 -4 -4 -1 -4 5 0 13 7 87 -37 78 -46 -3 -2 1
-5 8 -5 13 0 137 -69 147 -82 3 -3 10 -7 15 -8 24 -5 303 -151 299 -156 -3 -3
3 -3 15 0 11 3 36 -2 55 -11 19 -9 43 -16 54 -16 12 0 32 -4 45 -9 13 -5 45
-12 70 -14 26 -3 52 -9 58 -13 8 -5 9 -3 4 6 -6 10 0 12 24 8 17 -2 29 -2 26
0 -2 3 13 14 35 26 22 12 62 43 90 70 38 37 49 43 41 25 -5 -13 -17 -89 -26
-169 -25 -236 -35 -404 -36 -577 0 -80 -4 -133 -10 -133 -6 0 -6 -7 1 -19 12
-24 13 -58 1 -63 -6 -2 -5 -25 1 -57 5 -30 8 -85 6 -123 -2 -37 0 -68 5 -68 4
0 7 -17 7 -37 1 -116 55 -376 111 -536 16 -44 26 -84 23 -88 -3 -5 -1 -9 4 -9
5 0 16 -18 24 -39 15 -37 15 -40 -1 -44 -11 -3 -9 -5 7 -6 12 0 22 -5 22 -11
0 -5 13 -36 28 -68 16 -32 31 -67 35 -77 7 -20 7 -20 -8 -1 -8 11 -15 16 -15
10 1 -13 26 -45 32 -39 5 6 81 -152 103 -216 19 -53 41 -84 50 -69 4 6 2 16
-3 23 -5 7 -9 28 -8 49 0 20 -2 34 -6 32 -3 -2 -12 20 -18 49 -7 28 -39 131
-72 227 -32 96 -56 181 -53 188 3 7 1 11 -4 8 -11 -7 -23 52 -14 68 3 6 2 7
-3 3 -4 -4 -14 16 -21 45 -27 117 -44 202 -48 251 -3 29 -10 79 -16 112 -23
142 -20 775 6 1000 2 22 9 92 15 155 7 63 13 129 15 145 2 17 9 76 16 132 7
59 18 108 25 114 7 6 45 16 84 22 58 9 73 8 80 -2 4 -8 13 -10 19 -7 6 4 11 4
11 -1 0 -4 20 -7 45 -5 30 3 45 0 45 -8 0 -7 5 -6 15 4 16 16 21 31 7 22 -5
-3 -21 2 -36 10 -16 7 -37 14 -48 14 -10 0 -17 4 -13 9 6 11 -18 14 -150 15
-90 1 -106 -2 -157 -27 -47 -23 -64 -39 -97 -92 -45 -71 -123 -139 -175 -154
-39 -10 -106 0 -216 34 -31 10 -88 43 -83 49 4 4 -1 4 -11 0 -13 -5 -17 -4
-12 4 5 8 1 10 -10 5 -12 -4 -15 -3 -10 5 4 8 2 10 -7 6 -16 -6 -169 75 -162
86 2 4 -2 7 -10 7 -7 0 -44 19 -82 43 -185 117 -211 135 -208 141 2 3 -2 6 -8
6 -16 0 -187 112 -187 122 0 4 -6 8 -13 8 -21 0 -116 66 -110 76 3 6 1 7 -4 4
-6 -4 -25 6 -42 23 -18 16 -34 28 -36 27 -2 -1 -12 5 -22 13 -10 8 -37 28 -60
43 -56 39 -145 135 -137 149 4 6 3 8 -3 5 -14 -9 -41 49 -56 118 -18 90 1 188
62 312 29 56 61 107 72 113 11 6 17 15 14 20 -7 11 79 152 89 145 3 -3 4 -2 1
1 -7 10 35 65 46 59 5 -4 6 2 2 11 -5 13 -3 15 7 9 8 -5 11 -4 6 3 -8 13 239
384 249 374 5 -4 5 -2 2 5 -9 15 122 225 136 216 6 -3 7 -1 3 5 -9 14 63 134
75 126 5 -3 6 1 4 9 -3 7 5 29 19 49 13 20 50 81 81 137 32 56 62 98 68 94 6
-3 7 -1 3 5 -4 8 0 12 11 12 15 0 16 2 3 10 -23 15 -26 13 -62 -32z m-155
-279 c-46 -79 -69 -110 -76 -103 -3 3 -8 0 -13 -7 -4 -8 -3 -10 4 -5 15 9 15
1 1 -26 -8 -15 -13 -17 -19 -9 -5 9 -9 8 -13 -4 -4 -9 -3 -13 3 -10 18 11 10
-4 -58 -112 -38 -60 -81 -129 -96 -155 -20 -34 -32 -45 -44 -42 -13 5 -14 4
-4 -4 11 -7 4 -22 -28 -68 -23 -32 -46 -58 -52 -56 -5 1 -7 -2 -4 -7 8 -12
-79 -142 -89 -133 -5 4 -5 2 -2 -4 8 -15 -22 -56 -35 -48 -6 4 -8 2 -4 -4 7
-12 -49 -107 -64 -107 -4 0 -12 -4 -17 -9 -5 -5 -3 -6 5 -2 20 12 15 -1 -38
-89 -103 -171 -134 -292 -106 -417 14 -62 25 -85 67 -137 28 -35 66 -76 85
-93 19 -16 31 -34 28 -39 -3 -5 2 -6 10 -3 9 3 16 2 16 -3 0 -5 14 -17 31 -27
23 -14 27 -21 19 -31 -8 -10 -8 -15 0 -20 6 -4 14 -4 17 -1 4 3 0 6 -7 6 -10
0 -11 3 -3 11 14 14 36 2 27 -13 -4 -7 -2 -8 4 -4 15 9 104 -53 95 -67 -3 -6
-1 -7 6 -3 12 8 27 -2 238 -141 88 -59 111 -79 108 -94 -2 -11 0 -17 6 -14 5
4 7 11 4 16 -12 19 10 7 124 -65 64 -40 135 -83 159 -95 26 -13 40 -26 36 -33
-4 -6 -3 -8 4 -4 11 7 103 -34 97 -43 -1 -3 7 -7 18 -8 12 -1 67 -17 122 -37
130 -46 186 -48 244 -6 23 17 47 28 54 24 7 -4 9 -3 4 1 -8 10 22 47 33 40 4
-3 14 3 21 12 10 12 10 14 2 9 -22 -12 -15 3 27 59 47 64 68 79 136 100 62 19
99 18 202 -4 l83 -17 -120 1 c-66 1 -118 -2 -116 -6 3 -4 -5 -9 -18 -13 -18
-4 -22 -13 -24 -48 -1 -24 -14 -137 -28 -253 -14 -115 -27 -239 -29 -275 -1
-36 -8 -171 -15 -300 -9 -156 -11 -295 -6 -415 5 -99 9 -210 9 -247 1 -36 4
-64 8 -62 3 2 9 -22 13 -53 13 -117 69 -343 135 -548 86 -267 100 -316 89
-309 -5 3 -9 10 -9 16 0 6 -14 38 -31 71 -16 33 -28 66 -25 73 3 7 -1 17 -8
21 -50 29 -206 450 -245 658 -46 255 -54 361 -48 685 9 463 46 818 91 879 24
32 -20 -3 -63 -51 -24 -26 -48 -45 -54 -41 -5 3 -7 1 -4 -4 13 -21 -65 -68
-131 -79 -23 -4 -75 1 -123 10 -126 25 -130 26 -124 36 3 5 0 7 -8 4 -12 -4
-51 10 -147 53 -91 42 -249 136 -243 146 3 6 1 7 -6 3 -14 -9 -144 67 -348
201 -17 12 -17 12 1 6 14 -5 17 -3 12 6 -5 7 -15 10 -24 6 -27 -10 -366 227
-367 258 -1 6 -6 11 -12 10 -20 -4 -111 105 -141 170 -70 149 -59 310 33 482
79 149 156 270 141 222 -3 -10 -2 -15 3 -12 6 3 9 13 9 23 -2 17 22 56 92 152
22 30 63 89 92 130 28 41 77 109 107 150 31 41 65 89 76 107 11 17 40 59 65
94 67 93 100 139 149 208 57 80 75 66 24 -20z"/>
<path d="M3162 11953 c-15 -8 -49 -36 -77 -63 -27 -27 -63 -54 -79 -60 -27
-10 -90 -5 -111 10 -16 11 -95 13 -95 2 0 -5 -12 -12 -27 -15 -16 -3 -47 -22
-69 -41 -23 -19 -44 -33 -48 -31 -3 3 -4 2 -1 -1 2 -4 -6 -21 -19 -38 -13 -17
-38 -59 -56 -94 -27 -53 -40 -67 -82 -88 -27 -14 -54 -22 -60 -18 -6 4 -9 1
-7 -5 3 -7 8 -13 11 -13 4 0 28 -6 53 -14 25 -7 59 -11 74 -8 29 6 81 44 82
60 1 23 78 120 117 147 l42 31 73 -17 c104 -25 145 -22 198 12 24 15 60 45 78
65 42 44 51 45 51 6 0 -17 7 -45 16 -61 8 -17 13 -36 11 -42 -2 -7 -1 -21 4
-32 7 -19 8 -19 8 -1 1 19 2 19 24 0 71 -64 148 -84 320 -84 256 0 366 44 500
203 l23 28 45 -31 c65 -44 139 -38 181 15 23 29 48 33 48 7 0 -10 7 -28 16
-40 8 -12 12 -27 8 -34 -4 -7 -3 -8 4 -4 6 4 20 -2 31 -13 26 -26 53 -33 82
-22 16 7 18 10 7 10 -22 1 -72 66 -89 116 -7 22 -19 47 -26 56 -7 8 -13 21
-13 27 0 25 -48 24 -82 -1 -62 -46 -69 -43 -149 52 -22 25 -34 31 -65 31 -43
-1 -77 -23 -88 -58 -12 -37 -158 -150 -186 -144 -3 1 -23 -3 -45 -9 -21 -6
-103 -11 -181 -11 -121 0 -147 3 -186 21 -53 24 -59 31 -98 109 -17 33 -41 67
-53 75 -33 21 -84 26 -115 10z m91 -15 c29 -15 40 -30 82 -108 53 -98 70 -105
269 -105 155 0 252 13 283 37 7 5 18 6 24 2 7 -4 9 -3 5 4 -3 5 9 20 28 32 19
11 48 36 64 55 17 18 33 31 37 27 3 -3 3 1 0 10 -8 19 38 58 69 58 27 0 79
-47 70 -63 -4 -7 -4 -9 0 -5 4 3 20 -7 35 -24 24 -27 32 -30 63 -24 19 3 43
15 53 26 34 37 53 26 90 -54 42 -88 44 -108 10 -76 -13 12 -23 25 -22 29 0 3
-7 22 -16 42 l-18 36 -44 -45 c-32 -32 -50 -43 -65 -39 -11 3 -18 1 -14 -4 3
-5 -3 -9 -13 -9 -19 0 -125 63 -120 71 1 3 -19 -18 -45 -46 -26 -27 -52 -50
-57 -50 -5 0 -13 -4 -18 -9 -5 -5 -3 -6 5 -2 18 11 14 -5 -5 -20 -13 -9 -22
-9 -30 -2 -9 7 -13 7 -13 -2 0 -7 -6 -10 -13 -7 -8 3 -14 -1 -14 -8 0 -10 5
-11 19 -4 10 5 18 7 18 5 0 -11 -81 -46 -92 -40 -7 5 -8 3 -3 -6 6 -10 3 -12
-13 -8 -12 4 -20 3 -17 -2 18 -30 -380 -43 -458 -16 -83 30 -158 104 -143 142
3 8 2 13 -3 9 -5 -3 -12 13 -16 35 -4 22 -11 43 -16 46 -6 3 -29 -12 -53 -34
-38 -35 -48 -40 -80 -35 -28 4 -36 1 -36 -11 0 -8 -8 -20 -17 -25 -24 -14 -7
-14 18 0 11 5 17 14 14 19 -3 6 5 9 19 8 33 -3 33 -10 -1 -30 -51 -30 -165
-36 -148 -8 3 5 0 12 -6 16 -8 4 -9 3 -5 -5 7 -11 -26 -10 -104 2 -3 1 -24 -9
-47 -21 -31 -16 -53 -41 -88 -97 -26 -41 -59 -84 -72 -95 -27 -21 -78 -27 -88
-10 -3 6 -1 10 6 10 7 0 10 2 7 5 -3 3 12 23 33 44 21 22 35 41 33 44 -7 7 25
70 40 79 6 4 7 8 3 8 -16 0 70 83 111 108 48 27 91 31 203 18 l65 -9 62 58
c34 32 79 63 100 71 46 16 49 17 75 2z"/>
<path d="M4877 11733 c-4 -38 -11 -106 -17 -153 -48 -399 -42 -919 15 -1223 8
-45 17 -95 19 -112 2 -16 11 -64 20 -105 8 -41 18 -100 22 -130 8 -68 32 -201
38 -207 11 -12 17 96 12 232 -7 163 -10 200 -31 380 -8 66 -17 176 -20 245 -4
69 -8 131 -11 138 -2 7 -6 216 -9 465 -5 451 -9 537 -24 537 -5 0 -11 -30 -14
-67z m22 -408 c2 -361 15 -645 41 -885 11 -102 22 -264 25 -360 5 -183 4 -183
-30 20 -8 47 -28 163 -45 259 -35 203 -50 377 -50 581 0 144 13 413 27 565 6
68 8 75 14 45 5 -21 6 -3 4 45 -3 54 -1 70 4 50 5 -16 9 -160 10 -320z"/>
<path d="M4648 11665 c-3 -49 -6 -81 -13 -179 -12 -164 -56 -312 -173 -582
-70 -160 -92 -341 -66 -529 8 -55 12 -107 9 -115 -4 -8 -3 -11 1 -7 4 4 20
-28 34 -71 33 -95 65 -159 119 -237 23 -33 49 -71 59 -85 9 -14 19 -27 22 -30
3 -3 34 -39 70 -80 36 -41 132 -142 215 -225 82 -82 149 -152 148 -155 -1 -3
7 -7 18 -7 18 -2 19 0 7 15 -7 9 -26 28 -43 42 -67 56 -95 88 -89 104 3 9 1
16 -6 16 -6 0 -8 -4 -5 -10 3 -5 2 -10 -3 -10 -14 0 -157 159 -154 171 1 6 -2
8 -7 5 -15 -10 -81 71 -74 91 5 12 2 15 -10 10 -20 -7 -82 66 -71 84 4 7 3 9
-3 6 -14 -9 -37 19 -27 34 4 7 3 9 -3 6 -15 -10 -86 104 -126 203 -45 108 -66
210 -73 357 -10 178 11 271 111 508 62 146 114 318 126 418 6 45 14 107 18
137 l7 55 12 -91 c27 -200 10 -332 -73 -584 -62 -187 -73 -247 -73 -411 -1
-156 38 -324 99 -432 5 -10 7 -23 3 -30 -4 -7 -3 -9 1 -4 11 9 96 -134 90
-150 -2 -7 0 -12 4 -10 14 3 145 -186 143 -208 -1 -14 1 -16 7 -7 6 10 18 -2
42 -40 18 -29 37 -55 42 -56 15 -7 86 -120 79 -127 -4 -5 -1 -5 6 -1 6 4 12 2
12 -4 0 -6 14 -25 30 -43 17 -18 28 -38 25 -44 -5 -13 43 -68 52 -59 3 3 -13
33 -36 67 -22 33 -38 66 -34 73 3 6 3 8 -2 4 -4 -4 -22 11 -39 35 -16 23 -74
101 -127 172 -162 217 -256 371 -319 520 -12 28 -23 57 -25 65 -2 8 -8 26 -13
40 -5 14 -15 76 -22 137 -18 164 -2 300 57 469 81 235 87 267 87 469 1 188 -7
279 -26 302 -9 11 -7 12 8 6 17 -6 17 -5 5 10 -19 24 -31 21 -33 -8z"/>
<path d="M4040 11448 c-10 -26 -17 -34 -23 -25 -5 8 -7 5 -3 -8 3 -12 -11 -48
-35 -90 -21 -38 -73 -139 -115 -222 -41 -84 -78 -153 -80 -153 -3 0 -3 4 0 8
3 5 -15 44 -39 87 -25 43 -45 80 -45 82 0 2 -19 30 -42 61 -64 87 -138 166
-169 179 l-28 12 24 -52 c13 -29 45 -101 70 -162 26 -60 51 -118 55 -127 5 -9
26 -65 46 -125 20 -59 43 -121 51 -136 8 -16 12 -36 8 -45 -3 -9 -3 -14 0 -10
3 3 17 -5 30 -18 30 -30 56 -30 82 -1 32 35 45 67 131 322 94 280 117 377 104
426 l-9 34 -13 -37z m6 -67 c-3 -26 -10 -60 -15 -75 -6 -14 -9 -26 -7 -26 6 0
-162 -498 -180 -531 -8 -17 -19 -27 -25 -24 -5 4 -8 1 -7 -6 2 -8 -7 -13 -22
-13 -34 -1 -62 44 -101 162 -17 53 -45 130 -60 169 -16 40 -26 80 -23 90 4 13
3 14 -3 5 -7 -9 -20 11 -45 67 -23 51 -32 81 -25 84 7 2 2 12 -11 22 -12 11
-22 24 -22 30 0 5 5 3 10 -5 5 -8 10 -12 10 -8 0 15 140 -151 140 -167 0 -3
-6 -3 -12 1 -8 4 -10 3 -5 -2 5 -5 14 -9 20 -9 7 0 11 -8 11 -18 -1 -9 3 -14
8 -11 6 4 8 -3 3 -17 -4 -16 -3 -20 3 -11 7 10 17 0 39 -40 17 -29 34 -66 40
-83 5 -16 14 -30 19 -30 5 0 30 43 55 95 25 52 52 95 60 95 8 0 14 12 15 30 1
17 27 74 58 128 30 53 58 108 62 122 10 41 16 28 10 -24z"/>
<path d="M2131 11431 c-7 -5 -11 -14 -7 -19 4 -6 -4 -16 -16 -23 -19 -9 -21
-9 -10 2 6 7 12 20 12 29 -1 12 -4 11 -15 -4 -8 -11 -12 -29 -9 -43 5 -19 3
-22 -12 -16 -11 4 -15 3 -10 -5 3 -6 0 -14 -7 -19 -7 -4 -46 -46 -86 -93 -40
-47 -78 -85 -85 -85 -6 0 -11 -7 -11 -15 -1 -8 -7 -14 -14 -12 -7 1 -9 -2 -6
-9 9 -14 -45 -70 -59 -62 -6 3 -8 3 -4 -2 10 -10 -51 -87 -63 -79 -5 3 -8 0
-7 -8 2 -7 -3 -12 -10 -10 -8 1 -11 -2 -7 -8 3 -5 -11 -29 -33 -52 -21 -24
-67 -79 -102 -123 -34 -44 -68 -80 -74 -80 -6 0 -11 -7 -11 -15 0 -8 -23 -50
-52 -93 -52 -78 -75 -146 -67 -196 10 -62 17 -87 34 -117 13 -23 15 -35 7 -43
-12 -12 -6 -21 16 -25 9 -1 46 -32 84 -68 37 -37 111 -101 163 -142 52 -42 95
-81 95 -88 1 -7 6 -12 13 -11 17 4 217 -152 214 -166 -1 -7 2 -10 8 -6 13 8
62 -30 52 -40 -4 -5 -2 -5 5 -1 7 4 33 -6 58 -22 35 -22 42 -31 33 -40 -8 -8
-9 -12 -1 -12 6 0 13 5 15 10 2 7 19 5 47 -5 62 -21 128 -11 199 32 149 91
227 110 397 99 89 -6 238 -33 192 -35 -10 -1 -16 -5 -13 -9 8 -13 66 -2 63 11
-4 21 -54 57 -77 57 -6 0 -32 9 -57 21 -25 11 -71 26 -102 32 l-56 12 -2 110
c-3 136 -29 398 -53 525 -36 194 -146 573 -202 700 -9 19 -30 65 -46 103 -17
37 -29 67 -26 67 3 0 -5 10 -16 22 -11 12 -18 28 -15 36 2 7 0 10 -5 7 -6 -3
-10 -2 -10 4 0 5 6 11 13 14 6 2 2 2 -10 0 -13 -2 -23 2 -23 8 0 8 -4 8 -15
-1 -12 -10 -15 -10 -15 0 0 8 -3 10 -6 7 -9 -9 16 -38 26 -32 12 8 19 -7 45
-98 12 -45 40 -138 60 -207 46 -155 67 -248 62 -277 -2 -12 -1 -20 3 -18 8 5
18 -48 54 -290 26 -167 30 -208 45 -470 13 -215 13 -215 -13 -215 -38 0 -118
-32 -202 -80 -45 -26 -92 -50 -104 -53 -29 -8 -112 32 -174 83 -26 22 -52 40
-58 40 -5 0 -6 5 -2 12 4 6 3 8 -3 5 -9 -6 -131 88 -301 229 -116 97 -233 224
-259 281 l-26 56 20 46 c33 78 206 328 224 323 6 -1 8 2 5 7 -8 12 72 117 85
113 6 -1 8 2 4 8 -3 5 19 41 49 79 31 39 56 72 56 75 0 2 36 57 81 122 45 65
91 139 104 164 13 26 31 52 39 59 16 14 22 41 9 41 -5 0 -14 -4 -22 -9z m-93
-168 c-25 -38 -57 -87 -72 -111 -15 -23 -31 -40 -36 -37 -5 3 -8 0 -5 -7 3 -7
-39 -71 -92 -142 -129 -170 -120 -158 -193 -261 -71 -101 -86 -119 -77 -92 4
11 3 16 -4 12 -6 -4 -8 -13 -5 -21 3 -7 -13 -44 -35 -82 -56 -96 -59 -128 -21
-195 17 -30 28 -58 24 -62 -4 -5 -1 -4 7 0 11 6 13 4 8 -9 -4 -9 -3 -15 1 -12
5 3 35 -22 68 -55 32 -33 87 -83 121 -110 35 -28 62 -56 60 -62 -1 -7 4 -11
12 -9 8 2 17 -1 20 -5 21 -29 346 -275 398 -302 42 -21 103 -34 103 -22 0 12
100 62 112 55 6 -4 8 -3 5 3 -4 6 3 17 16 25 36 24 152 59 171 52 16 -6 17 5
15 132 -5 355 -76 843 -166 1154 -14 47 -27 95 -29 107 -2 12 -13 42 -24 67
-10 25 -17 46 -14 46 10 0 64 -125 64 -148 0 -13 4 -21 9 -18 10 7 19 -13 70
-170 44 -133 115 -398 136 -514 23 -117 55 -444 55 -552 l0 -97 38 -6 c48 -8
136 -39 187 -65 22 -12 33 -19 23 -16 -79 23 -209 38 -291 32 -131 -9 -136
-10 -130 -18 2 -5 -2 -8 -9 -9 -12 0 -42 -15 -137 -67 -23 -12 -46 -20 -52
-17 -5 4 -8 1 -7 -6 4 -18 -60 -32 -116 -25 -49 5 -176 73 -229 121 -12 12
-44 36 -70 55 -86 63 -106 77 -168 126 -202 161 -302 252 -292 267 3 6 1 7 -4
4 -15 -9 -38 20 -70 88 -41 90 -39 169 7 255 24 44 40 64 51 62 9 -1 20 5 23
14 5 14 4 15 -9 4 -8 -7 -15 -8 -15 -2 0 19 26 32 38 20 9 -9 12 -9 12 -1 0 6
-6 13 -12 16 -16 5 45 83 61 80 6 -2 8 3 6 10 -3 6 13 34 36 60 36 41 43 46
58 35 14 -12 14 -11 3 4 -12 15 -8 25 40 79 70 82 162 178 152 160 -5 -9 -3
-12 5 -7 6 4 9 11 6 16 -5 8 107 147 131 162 6 4 23 25 39 48 47 68 41 35 -7
-37z"/>
<path d="M4370 10925 c-41 -50 -153 -101 -239 -107 l-35 -3 26 -29 c23 -27 30
-29 83 -28 102 3 192 81 183 158 -3 26 -4 26 -18 9z"/>
<path d="M2826 10876 c7 -23 97 -126 123 -140 9 -5 18 -12 21 -16 10 -13 67
-39 74 -33 3 4 6 2 6 -4 0 -14 114 -9 153 6 16 6 33 9 38 6 5 -4 17 -1 26 4
12 7 14 10 4 11 -24 0 8 28 41 36 56 12 7 25 -52 14 -29 -6 -72 -10 -96 -10
-52 0 -160 39 -222 80 -25 17 -49 30 -53 30 -4 0 -10 8 -13 18 -3 9 -17 18
-31 18 -22 2 -25 -1 -19 -20z m156 -84 c86 -45 170 -67 235 -59 53 6 47 -6
-14 -27 -49 -17 -138 -22 -129 -7 3 4 -6 6 -19 3 -14 -2 -35 2 -48 11 -38 24
-137 118 -149 140 l-10 20 28 -20 c16 -11 64 -39 106 -61z"/>
<path d="M6100 10395 c-2 -37 1 -175 6 -230 1 -22 3 -143 4 -268 0 -268 -6
-313 -81 -625 -30 -126 -42 -180 -54 -237 -6 -30 -6 -30 12 -10 49 53 145 327
185 525 20 105 25 374 9 485 -22 144 -44 261 -52 280 -5 11 -13 40 -18 65 -7
38 -9 40 -11 15z m40 -213 c5 -23 11 -82 12 -130 1 -68 2 -77 7 -42 5 38 7 30
14 -55 18 -254 -4 -420 -90 -674 -42 -126 -83 -221 -83 -195 0 6 18 85 41 175
23 90 43 175 45 189 3 14 13 61 22 105 14 64 17 133 17 350 0 149 -3 302 -7
340 -5 56 -5 61 3 25 5 -25 13 -64 19 -88z"/>
<path d="M8699 10243 c-1 -5 -1 -11 0 -15 0 -4 -11 -58 -24 -120 -42 -189 -67
-437 -66 -658 0 -107 3 -220 5 -250 11 -128 18 -188 27 -235 5 -27 11 -66 13
-85 12 -91 39 -207 76 -320 22 -69 40 -129 40 -135 0 -5 9 -21 19 -34 24 -32
32 -9 14 44 -12 36 -13 36 -8 8 8 -55 -2 -37 -30 55 -14 48 -35 114 -45 147
-54 176 -100 553 -100 814 0 162 27 441 59 606 l17 90 0 -500 c0 -422 2 -523
18 -650 10 -82 20 -170 22 -195 8 -87 42 -322 48 -327 13 -13 13 5 0 77 -50
287 -87 818 -79 1119 2 80 7 242 10 359 4 147 3 212 -4 212 -6 0 -12 -3 -12
-7z"/>
<path d="M5387 10103 c-31 -100 -51 -188 -62 -268 -2 -16 -7 -48 -10 -70 -28
-187 -38 -272 -50 -415 -8 -91 -15 -199 -16 -241 l-2 -76 -30 34 c-16 18 -34
30 -39 27 -6 -4 -6 -9 -1 -13 12 -9 53 -142 53 -173 0 -22 -6 -27 -37 -33 -46
-8 -226 -90 -269 -122 -17 -13 -34 -23 -38 -23 -4 0 -22 -11 -39 -24 -44 -33
-153 -86 -185 -91 -33 -4 -87 -31 -75 -38 4 -2 49 -3 98 0 130 6 143 7 140 13
-2 3 36 23 83 45 48 21 138 65 199 97 62 32 120 58 128 58 12 0 15 -15 15 -79
0 -43 2 -100 5 -127 l5 -49 -15 53 c-8 29 -23 67 -32 85 l-18 32 -3 -35 c-4
-41 10 -161 44 -385 34 -215 34 -326 0 -428 -14 -43 -38 -101 -53 -130 -15
-29 -33 -65 -40 -81 -13 -29 -13 -29 6 -12 11 10 20 21 19 25 -3 15 80 172 84
160 3 -8 5 2 5 21 0 19 5 60 12 90 11 52 12 326 1 294 -7 -18 -50 246 -55 333
-2 35 -7 68 -11 75 -5 9 -4 10 4 3 6 -5 15 -28 20 -50 5 -22 13 -49 18 -59 4
-11 4 -17 -2 -14 -5 4 -9 -7 -9 -22 0 -15 3 -26 7 -24 3 2 9 -2 12 -8 3 -7 4
-2 2 12 -2 14 0 34 4 45 8 19 9 19 9 1 1 -11 3 -17 5 -15 2 2 -2 72 -8 154
l-11 150 -35 3 c-19 2 -32 0 -27 -4 10 -10 -305 -168 -388 -193 -37 -12 -90
-21 -119 -20 -51 1 -51 1 -15 10 43 10 107 41 166 81 25 17 49 26 60 22 12 -4
14 -3 6 3 -9 6 6 20 51 46 66 39 82 45 70 25 -4 -7 -3 -8 5 -4 6 4 9 11 6 16
-8 13 139 70 181 70 l37 0 -5 51 c-5 52 7 56 15 4 4 -28 4 -27 6 7 0 20 -2 38
-7 40 -20 9 22 489 73 833 8 55 15 105 15 110 1 6 6 1 11 -10 8 -16 8 -15 5
10 -4 27 12 131 19 123 1 -2 -1 -48 -6 -103 -4 -55 -11 -154 -14 -220 -4 -66
-9 -133 -11 -150 -12 -90 -15 -684 -5 -815 7 -80 14 -170 16 -200 6 -64 26
-177 62 -340 66 -302 66 -292 23 -430 -75 -244 -78 -375 -10 -558 11 -30 17
-58 14 -64 -5 -7 -2 -8 6 -3 10 6 12 4 7 -9 -4 -9 -3 -15 2 -11 5 3 19 -20 30
-50 12 -31 28 -67 37 -81 31 -46 8 -34 -35 19 -56 67 -135 232 -157 325 -13
58 -16 101 -11 220 3 83 12 170 21 201 8 29 18 78 22 107 3 30 9 52 13 50 3
-2 4 20 3 50 -3 38 -8 54 -18 54 -8 0 -14 -10 -14 -23 0 -12 -9 -47 -20 -77
-11 -30 -20 -56 -20 -58 0 -2 -4 -1 -9 2 -5 4 -7 -2 -5 -11 5 -21 -68 -129
-85 -125 -6 1 -10 -1 -9 -6 2 -4 -7 -18 -19 -31 -28 -31 -23 -38 11 -16 49 32
98 111 156 250 22 53 22 45 -2 -72 -7 -35 -16 -63 -21 -63 -4 0 -6 -4 -2 -9 3
-5 -1 -52 -10 -103 -45 -279 24 -517 210 -725 46 -52 74 -70 56 -35 -6 9 -40
81 -76 159 -133 288 -139 397 -41 728 32 105 31 121 -19 330 -18 77 -36 160
-40 185 -3 25 -10 68 -15 95 -50 265 -54 789 -11 1445 10 157 17 286 16 288
-2 2 -10 -18 -18 -45z"/>
<path d="M6863 9887 c-2 -22 -7 -45 -11 -51 -5 -6 -20 -49 -34 -96 -14 -47
-38 -125 -53 -175 -15 -49 -31 -106 -35 -125 -5 -19 -26 -100 -48 -180 -63
-230 -121 -447 -149 -555 -14 -55 -31 -122 -38 -150 -8 -27 -29 -122 -48 -210
-19 -88 -49 -197 -66 -241 -86 -223 -244 -355 -454 -379 -48 -5 -56 -9 -47
-21 8 -9 18 -11 29 -5 9 4 35 11 59 15 24 4 71 18 104 31 33 14 65 22 71 18 5
-3 7 -1 3 5 -3 5 9 19 26 31 100 62 207 224 251 381 22 78 47 188 47 207 0 2
4 1 10 -2 6 -4 7 5 4 23 -4 17 10 88 36 188 23 87 55 211 71 274 16 63 35 138
43 165 8 28 31 111 51 185 21 74 57 205 82 290 25 85 47 164 49 175 7 35 43
140 43 128 2 -37 -93 -472 -101 -467 -4 3 -5 -2 -2 -10 7 -18 -5 -77 -68 -336
-146 -601 -171 -703 -194 -795 -27 -105 -101 -270 -121 -270 -7 0 -18 -7 -25
-15 -11 -12 -11 -12 5 -1 39 30 13 -11 -46 -70 -96 -98 -211 -149 -334 -149
-28 0 -55 -4 -58 -10 -9 -14 50 -12 139 5 92 17 185 64 244 123 24 23 48 39
54 36 6 -4 8 -3 5 3 -4 6 16 44 43 84 27 41 50 79 50 84 0 6 6 22 14 37 20 38
49 146 101 368 24 107 51 220 60 250 15 58 44 171 51 205 2 11 18 76 34 145
39 159 90 386 96 425 3 17 14 68 25 115 11 47 22 105 25 130 3 25 9 59 14 75
18 55 23 152 8 152 -8 0 -14 -15 -15 -40z"/>
<path d="M7898 9893 c-11 -22 13 -368 36 -518 39 -253 61 -353 121 -543 19
-62 35 -118 35 -123 0 -18 112 -312 157 -412 24 -54 40 -103 37 -109 -4 -7 -2
-8 4 -4 7 4 12 3 12 -2 0 -31 222 -327 274 -366 15 -10 26 -25 26 -32 0 -8 6
-11 17 -7 12 5 14 3 8 -8 -4 -8 -4 -11 0 -6 12 11 17 47 6 44 -9 -2 -27 22
-101 133 -74 110 -200 384 -287 620 -119 327 -191 598 -279 1059 -21 112 -41
195 -43 186 -1 -10 2 -43 8 -74 6 -31 25 -128 41 -216 36 -186 90 -423 126
-545 64 -221 82 -277 146 -445 77 -202 80 -211 56 -209 -10 1 -14 -4 -11 -12
3 -8 9 -12 13 -9 5 3 10 2 13 -2 2 -5 2 -2 1 5 -2 6 0 12 4 11 6 0 112 -214
120 -242 2 -7 -6 -1 -17 13 -12 14 -19 18 -15 9 3 -10 1 -20 -4 -23 -14 -8
-55 61 -46 75 4 8 3 9 -4 5 -7 -4 -21 13 -37 43 -27 54 -32 76 -13 65 7 -4 8
-3 4 5 -4 6 -11 9 -16 6 -5 -3 -18 11 -28 32 -32 64 -96 237 -94 256 0 9 -3
17 -8 17 -11 0 -83 223 -84 261 -1 15 -4 25 -7 23 -4 -2 -9 4 -12 14 -31 108
-59 224 -72 302 -8 52 -20 118 -25 145 -22 121 -41 296 -46 432 -4 141 -7 164
-16 146z"/>
<path d="M9476 9793 c-3 -15 -8 -109 -11 -208 -4 -114 -11 -185 -18 -194 -10
-12 -9 -13 2 -7 11 7 13 -10 8 -100 -2 -60 -7 -215 -10 -344 -18 -706 -69
-1101 -187 -1425 -12 -33 -24 -71 -27 -85 -21 -91 -196 -425 -216 -414 -7 4
-9 4 -5 -1 10 -10 -11 -37 -23 -29 -5 3 -6 -2 -3 -10 3 -9 2 -16 -3 -16 -5 0
-28 -17 -51 -38 -53 -49 -126 -75 -213 -75 -61 0 -67 -2 -59 -18 14 -25 101
-43 172 -35 73 7 154 49 220 113 25 25 50 43 55 40 5 -3 10 4 10 15 1 12 12
31 24 42 19 18 21 19 16 3 -4 -11 -3 -16 4 -12 6 4 8 14 5 22 -3 8 3 27 13 42
76 106 239 508 266 653 5 24 11 35 19 31 8 -4 8 -3 0 6 -14 15 -6 63 9 54 6
-3 7 -1 3 5 -11 18 16 182 28 174 7 -4 7 -1 0 9 -8 10 -9 39 -3 94 20 187 24
311 24 670 0 360 -9 691 -23 907 -4 56 -3 94 2 91 5 -4 6 -1 2 5 -4 7 -9 22
-11 33 -7 33 -13 33 -19 2z m21 -393 c14 -420 9 -1154 -10 -1326 -9 -83 -17
-155 -18 -160 0 -5 -5 0 -10 11 -7 15 -8 13 -3 -12 14 -78 -85 -433 -173 -623
-59 -128 -115 -223 -123 -210 -5 8 -9 7 -13 -5 -4 -9 -3 -13 3 -10 18 11 11
-7 -16 -42 -14 -18 -29 -31 -35 -28 -5 3 -7 0 -4 -7 6 -14 -80 -108 -99 -108
-6 0 0 10 14 21 l25 21 -25 -15 c-14 -8 -24 -20 -23 -26 2 -6 -21 -23 -50 -38
-40 -20 -71 -27 -134 -31 -58 -3 -83 -1 -83 7 0 6 13 11 28 11 42 0 126 27
156 51 14 11 31 17 37 13 7 -4 9 -3 5 4 -3 6 9 23 28 39 77 64 185 256 263
468 36 97 53 149 108 335 69 231 113 761 131 1573 4 180 8 326 10 325 1 -2 6
-109 11 -238z"/>
<path d="M4334 9495 c8 -115 35 -253 72 -373 14 -46 23 -90 20 -98 -3 -8 -2
-13 3 -10 10 7 19 -13 31 -69 18 -92 41 -202 46 -225 8 -35 18 -12 34 73 10
55 7 200 -5 247 -1 3 -5 25 -9 50 -15 86 -36 156 -71 239 -19 45 -33 87 -29
92 3 5 -1 12 -9 15 -8 3 -27 35 -42 72 -43 102 -48 100 -41 -13z m26 15 c0 -6
14 -38 31 -72 48 -98 99 -238 85 -238 -8 0 -8 -2 1 -8 31 -19 62 -298 44 -402
-6 -37 -9 -45 -10 -25 -2 39 -49 228 -94 380 -40 137 -54 201 -62 300 -4 38
-9 73 -12 79 -3 5 -1 6 5 2 7 -4 12 -11 12 -16z"/>
<path d="M3970 9402 c0 -9 -17 -11 -52 -8 -109 8 -242 -39 -393 -138 -46 -30
-86 -60 -90 -65 -3 -6 -11 -11 -16 -11 -6 0 -8 4 -5 9 7 11 -21 8 -31 -4 -4
-4 -3 -5 4 -1 6 3 14 2 17 -3 7 -10 -73 -77 -86 -73 -5 1 -7 -2 -4 -7 3 -5
-13 -24 -36 -43 -23 -18 -88 -80 -144 -137 -67 -67 -107 -101 -115 -96 -8 5
-10 4 -5 -3 4 -6 -5 -19 -21 -28 -15 -10 -38 -27 -51 -38 -20 -18 -24 -18 -32
-6 -5 8 -10 11 -10 5 0 -29 16 -34 58 -20 30 11 49 12 67 5 17 -7 24 -7 20 0
-3 6 -14 10 -23 10 -9 0 8 12 38 27 30 15 59 26 63 25 5 -1 6 2 2 8 -3 5 -2
10 2 10 5 0 55 40 111 89 154 135 208 175 186 139 -4 -7 -3 -8 5 -4 6 4 9 11
6 16 -8 14 136 122 272 203 66 40 188 94 225 99 24 3 54 35 44 45 -3 4 -6 1
-6 -5z m-85 -31 c-11 -3 -35 -14 -53 -24 -18 -10 -38 -15 -44 -11 -6 4 -8 3
-5 -2 3 -5 -20 -23 -51 -39 -31 -16 -87 -50 -124 -77 -72 -51 -89 -59 -67 -30
13 15 12 16 -4 3 -9 -8 -15 -16 -13 -19 6 -5 -38 -42 -49 -42 -4 0 -1 8 6 18
13 15 12 16 -3 3 -10 -7 -16 -17 -13 -21 5 -7 -86 -90 -98 -90 -3 0 -34 -27
-69 -60 -59 -56 -102 -84 -64 -41 12 13 14 21 6 26 -5 3 -8 11 -4 16 3 5 9 7
14 4 4 -3 10 5 13 16 5 19 2 18 -24 -7 -25 -24 -27 -29 -13 -34 14 -5 15 -7 0
-19 -9 -7 -14 -17 -11 -21 7 -11 -40 -51 -56 -48 -7 2 -13 -3 -14 -9 0 -18
-43 -45 -57 -37 -7 4 -8 3 -4 -4 4 -7 -13 -21 -43 -37 -61 -30 -90 -33 -41 -4
19 12 88 74 153 139 83 83 124 117 135 113 9 -4 13 -2 9 4 -10 17 78 94 100
87 13 -4 14 -3 5 3 -10 7 -8 13 7 27 11 10 24 15 29 12 5 -3 18 1 28 10 18 14
17 14 -6 4 -23 -10 -22 -9 5 14 30 26 51 34 40 16 -3 -5 -1 -10 5 -10 6 0 10
7 8 17 -5 28 167 124 267 149 52 13 137 18 100 5z"/>
<path d="M7175 9155 c-63 -29 -68 -38 -75 -132 -10 -114 -1 -231 19 -266 25
-44 92 -56 193 -36 157 31 200 42 220 61 17 15 19 18 6 14 -10 -3 -18 -1 -18
4 0 5 -68 6 -159 3 l-158 -5 -6 39 c-10 56 -8 206 2 222 6 10 37 15 107 17
103 4 204 21 204 35 0 5 -17 11 -37 14 -82 14 -142 28 -139 34 8 13 -130 10
-159 -4z m213 -32 c29 -9 51 -17 50 -18 -2 -2 -39 -6 -83 -9 -59 -4 -76 -3
-65 5 12 9 11 9 -5 3 -11 -4 -38 -9 -60 -10 -22 -2 -43 -3 -46 -3 -4 -1 -7
-66 -7 -146 0 -86 3 -143 9 -140 5 3 6 -1 3 -9 -5 -13 17 -14 155 -13 88 1
157 -1 152 -6 -12 -12 -140 -36 -231 -43 -118 -9 -129 0 -142 121 -6 54 -7
122 -2 170 9 76 11 80 44 103 31 22 42 23 105 18 39 -3 94 -14 123 -23z"/>
<path d="M7322 8657 c-14 -16 -78 -211 -98 -297 -17 -73 -19 -188 -4 -239 8
-28 7 -36 -8 -48 -14 -11 -15 -12 -1 -7 13 4 18 -3 23 -30 9 -47 26 -56 27
-14 1 97 10 182 24 249 38 176 46 229 50 312 2 48 3 87 1 87 -2 0 -8 -6 -14
-13z m-7 -129 c-3 -45 -15 -114 -25 -154 -22 -85 -40 -204 -41 -277 -1 -44 -3
-36 -16 48 -13 90 -13 108 2 185 9 47 27 117 41 155 14 39 28 82 31 98 11 54
15 25 8 -55z"/>
<path d="M4998 8600 c-3 -19 -7 -62 -8 -94 0 -33 -3 -63 -6 -68 -3 -4 -11 -74
-19 -155 -8 -82 -21 -213 -30 -293 -21 -205 -37 -576 -32 -768 3 -90 7 -165 9
-167 6 -6 55 226 63 298 2 17 13 97 24 177 41 303 54 691 30 895 -25 222 -24
214 -31 175z m27 -340 c8 -180 -8 -487 -35 -685 -11 -82 -25 -184 -31 -226 -5
-42 -15 -107 -23 -145 -12 -63 -13 -42 -11 246 3 329 6 377 52 784 31 275 36
278 48 26z"/>
<path d="M7928 7818 c0 -13 -1 -31 0 -40 1 -10 -3 -18 -8 -18 -6 0 -10 -13
-10 -28 0 -16 -4 -53 -10 -83 -29 -162 -68 -532 -85 -804 -4 -55 -8 -111 -11
-125 -2 -14 -6 -99 -10 -190 -3 -91 -8 -171 -10 -179 -4 -12 -5 -621 -2 -668
3 -30 18 -9 19 25 0 20 2 46 4 57 1 11 6 67 9 125 4 58 11 168 16 245 6 77 14
212 20 300 19 315 40 610 45 630 2 11 7 63 10 115 3 52 10 140 16 195 5 55 12
177 15 270 3 94 7 176 9 183 3 6 0 12 -5 12 -6 0 -11 -10 -12 -22z m-10 -238
c-5 -47 -10 -128 -12 -180 -4 -111 -13 -231 -26 -350 -14 -131 -19 -191 -30
-375 -9 -163 -22 -353 -36 -535 -3 -47 -9 -134 -14 -195 -6 -98 -7 -87 -8 103
0 159 3 210 11 206 8 -5 9 -3 2 4 -10 11 -9 45 10 382 13 227 48 624 69 785 2
17 9 68 15 115 20 153 33 181 19 40z"/>
<path d="M6495 7701 c-9 -21 -14 -47 -11 -58 10 -32 -21 -161 -88 -368 -36
-110 -70 -208 -76 -217 -5 -10 -10 -23 -10 -30 0 -7 -36 -125 -81 -263 -44
-137 -96 -304 -115 -370 -19 -66 -47 -163 -63 -215 -16 -52 -42 -137 -57 -187
-33 -112 -43 -117 -14 -7 12 44 26 107 32 141 5 35 14 61 18 58 4 -2 5 8 3 23
-4 22 -2 24 7 12 9 -12 10 -11 5 6 -3 12 0 34 6 50 6 16 13 42 15 59 2 16 8
31 14 33 6 2 7 9 4 14 -4 7 -2 8 4 4 7 -4 12 -2 12 3 0 6 -4 11 -9 11 -5 0 -3
21 4 48 34 121 69 234 135 437 39 121 73 231 76 245 3 13 9 29 13 35 5 5 29
73 54 150 25 77 59 176 76 220 17 44 31 86 31 95 -1 24 -18 -11 -45 -88 -12
-37 -50 -146 -84 -242 -76 -217 -256 -777 -266 -830 -3 -14 -21 -81 -40 -150
-78 -284 -129 -540 -103 -524 5 3 8 12 8 20 0 8 4 22 10 32 11 20 68 204 178
577 17 55 87 276 157 490 153 470 150 463 186 600 27 102 46 225 36 225 -2 0
-12 -18 -22 -39z"/>
<path d="M5793 7663 c-4 -46 -24 -170 -39 -235 -20 -90 -171 -701 -213 -860
-17 -65 -31 -129 -31 -142 0 -23 -4 -21 -52 26 -29 28 -82 75 -118 106 -108
93 -227 211 -221 218 3 4 1 4 -6 0 -8 -4 -22 8 -38 33 -24 36 -52 57 -62 48
-2 -3 8 -15 22 -28 13 -13 25 -28 25 -33 0 -35 133 -191 315 -371 l121 -120
-13 -75 c-13 -80 -18 -442 -6 -454 10 -9 42 91 41 129 l0 30 -10 -35 c-23 -80
-27 -73 -27 47 -1 71 3 124 9 128 6 3 10 12 10 18 0 7 -4 6 -10 -3 -13 -21
-13 -8 4 114 8 54 12 105 9 113 -3 7 4 48 15 91 11 42 41 163 67 267 25 105
48 197 50 205 2 8 30 117 61 242 32 125 61 225 65 222 4 -2 10 0 14 6 3 5 -1
10 -9 10 -13 0 -13 6 0 50 8 28 21 92 28 143 l13 92 8 -110 c10 -139 1 -363
-20 -480 -9 -49 -43 -198 -77 -330 -33 -132 -63 -251 -66 -265 -5 -22 -6 -23
-12 -5 -5 14 -7 8 -8 -20 -1 -51 -87 -385 -94 -365 -3 8 1 30 8 49 17 41 17
42 0 35 -7 -3 -14 -15 -14 -27 0 -12 -1 -26 -3 -32 -1 -5 1 -22 5 -37 5 -16 3
-39 -3 -55 l-11 -28 4 30 c2 17 0 39 -4 50 -6 15 -9 8 -8 -25 0 -38 14 -109
17 -89 3 20 123 484 126 489 2 4 23 78 45 166 118 453 131 529 131 776 0 93
-3 184 -6 203 -3 19 -7 51 -10 70 -6 37 -20 48 -22 18z m-657 -937 c3 -8 56
-59 117 -113 62 -54 127 -111 145 -128 19 -16 40 -34 48 -38 7 -4 19 -18 25
-30 12 -22 12 -22 -10 -3 -11 11 -24 16 -28 13 -3 -4 -1 -7 6 -7 7 0 10 -4 6
-9 -3 -5 3 -16 13 -23 11 -7 23 -24 27 -38 8 -24 7 -24 -21 5 -16 17 -49 47
-72 67 -25 22 -40 42 -37 51 3 7 -2 20 -12 28 -16 13 -17 12 -4 -4 8 -9 11
-20 9 -23 -3 -3 -22 14 -41 38 -20 24 -57 66 -84 93 -66 69 -117 135 -104 135
7 0 14 -6 17 -14z"/>
<path d="M7207 7453 c-2 -4 -8 -84 -11 -176 -4 -93 -9 -174 -11 -180 -2 -7 -7
-30 -10 -52 -3 -22 -8 -56 -11 -75 -10 -58 -74 -281 -99 -345 -41 -103 -81
-213 -252 -695 -142 -396 -226 -661 -255 -793 -27 -128 -29 -154 -24 -267 3
-69 12 -172 20 -230 19 -127 33 -414 41 -810 18 -941 72 -1290 284 -1831 26
-68 47 -106 56 -106 10 0 12 4 5 12 -5 7 -7 15 -3 18 3 4 1 7 -6 7 -9 0 -11 8
-8 21 3 12 3 18 0 15 -3 -3 -12 6 -20 20 -16 31 -17 45 -2 24 12 -17 9 11 -15
120 -76 347 -98 483 -116 701 -6 74 -13 157 -16 184 -2 28 -7 307 -9 620 -5
643 -10 794 -32 1015 -33 340 -29 408 39 640 26 90 45 160 63 233 10 41 62
207 132 422 41 127 97 298 124 381 27 83 49 160 48 170 0 18 -1 18 -9 -1 -5
-11 -34 -101 -65 -200 -126 -398 -149 -466 -157 -448 -6 13 -7 11 -4 -7 3 -13
-14 -90 -38 -170 -178 -597 -188 -660 -152 -970 19 -157 36 -602 36 -941 0
-204 -2 -238 -15 -243 -14 -5 -14 -9 -1 -35 12 -23 15 -62 13 -184 -1 -85 1
-150 4 -145 4 6 7 -23 8 -63 1 -66 16 -276 26 -369 10 -92 16 -139 25 -190 20
-110 81 -416 91 -454 16 -60 4 -53 -20 13 -12 32 -19 67 -15 77 4 13 3 15 -3
6 -19 -25 -112 303 -157 548 -24 134 -58 488 -54 567 2 39 0 66 -4 60 -4 -7
-8 11 -8 38 -2 250 -22 983 -30 1070 -5 61 -18 173 -29 250 -25 166 -26 201
-6 325 23 147 72 333 86 324 4 -2 5 4 3 13 -3 10 27 110 66 223 39 113 83 240
97 284 18 56 28 74 35 65 7 -10 8 -8 3 7 -3 12 4 46 15 75 12 30 43 117 70
194 26 77 59 169 73 205 13 36 42 111 63 167 25 65 42 98 47 90 5 -7 6 -3 2
10 -3 12 8 67 25 125 34 114 70 319 70 400 0 103 8 40 14 -112 7 -172 11 -220
32 -430 9 -79 20 -153 26 -163 5 -11 8 -28 5 -38 -3 -10 -1 -19 4 -19 5 0 9
-15 9 -33 0 -18 7 -58 15 -89 22 -85 57 -299 51 -315 -3 -7 -2 -13 3 -13 8 0
43 -203 67 -400 21 -170 29 -652 15 -909 -33 -587 -131 -1406 -169 -1406 -6 0
-12 -3 -12 -7 0 -31 1 -32 10 -18 12 19 6 -40 -25 -220 -51 -295 -95 -624 -95
-703 0 -21 -4 -36 -9 -32 -6 3 -8 -8 -5 -27 3 -18 1 -76 -4 -128 -9 -87 -10
-77 -10 115 -1 244 12 538 32 739 8 77 18 170 21 206 4 36 11 67 16 71 13 8
30 69 19 69 -5 0 -11 -10 -13 -22 -12 -64 7 124 23 232 10 69 26 190 35 270
10 80 22 153 27 164 8 14 7 17 -3 11 -9 -6 -11 1 -6 31 4 21 10 79 14 128 5
78 8 87 20 71 7 -11 13 -14 13 -8 0 7 -4 15 -10 18 -12 7 -14 105 -2 105 4 0
6 18 4 40 -2 21 1 99 7 172 19 230 25 647 12 883 -12 212 -17 269 -43 510 -7
61 -13 137 -13 170 0 33 -2 62 -6 65 -9 7 -69 494 -69 558 0 64 -20 68 -34 6
-4 -21 -20 -81 -33 -132 -14 -51 -23 -95 -21 -97 7 -7 58 152 58 181 0 39 16
28 18 -13 3 -47 29 -275 42 -363 16 -112 39 -310 50 -430 6 -63 13 -131 15
-150 39 -328 37 -958 -6 -1395 -5 -55 -16 -176 -24 -270 -15 -171 -52 -487
-60 -515 -3 -8 -9 -55 -15 -105 -6 -49 -17 -148 -25 -220 -9 -71 -20 -175 -25
-230 -5 -55 -11 -122 -14 -150 -27 -249 -31 -836 -7 -896 13 -33 11 -45 25
141 6 72 32 339 52 530 3 30 7 57 9 60 2 3 9 44 15 90 6 47 17 119 25 160 107
588 180 1175 210 1700 11 204 15 613 6 715 -27 302 -31 348 -45 428 -8 46 -18
106 -22 133 -3 27 -8 51 -9 54 -2 3 -11 50 -20 105 -9 55 -27 156 -40 225 -13
69 -26 142 -29 162 -3 21 -13 77 -21 125 -23 132 -34 255 -46 519 -16 335 -16
334 -22 340 -3 3 -7 2 -10 -3z"/>
<path d="M4045 7230 c4 -6 -13 -11 -42 -12 -128 -4 -178 -11 -324 -44 -154
-34 -324 -95 -478 -169 -121 -59 -180 -82 -141 -54 12 8 12 10 1 7 -8 -2 -16
-14 -18 -27 -3 -20 0 -22 34 -20 21 2 40 6 43 10 9 12 553 110 740 133 254 33
476 42 626 27 183 -19 184 -19 274 -35 116 -21 123 -21 108 4 -7 11 -17 20
-23 20 -5 0 -60 23 -121 50 -159 72 -277 96 -514 106 -80 3 -151 7 -158 10 -7
2 -10 -1 -7 -6z m341 -35 c177 -23 264 -50 441 -137 32 -16 22 -21 -13 -7 -50
19 -343 48 -489 49 -177 0 -352 -15 -635 -55 -114 -16 -410 -70 -503 -92 -37
-8 -71 -13 -74 -9 -3 3 1 6 10 6 9 0 32 9 51 21 19 11 41 17 47 13 8 -5 9 -3
4 6 -6 10 -4 12 9 7 10 -4 15 -3 11 3 -7 12 83 53 101 46 8 -3 13 -2 10 3 -14
22 273 104 457 130 78 11 153 22 167 24 64 10 307 6 406 -8z"/>
<path d="M3885 6780 c-4 -6 -8 -32 -10 -58 -15 -178 -38 -481 -45 -607 -5 -82
-18 -267 -29 -410 -11 -143 -22 -300 -25 -350 -7 -141 -25 -396 -31 -435 -2
-19 -7 -82 -10 -140 -4 -58 -8 -123 -10 -145 -2 -22 -9 -139 -16 -260 -7 -121
-15 -222 -18 -225 -3 -3 -6 -54 -6 -115 -1 -208 -7 -360 -16 -377 -6 -11 -6
-18 0 -18 5 0 8 -12 6 -27 -7 -59 -8 -120 -2 -173 4 -30 9 -147 12 -259 4
-113 9 -209 12 -215 3 -5 1 -6 -5 -2 -7 4 -12 1 -12 -9 0 -9 5 -13 10 -10 6 4
10 -7 10 -26 0 -44 60 -430 70 -454 5 -11 18 -57 29 -102 12 -46 32 -113 46
-149 14 -38 23 -76 19 -87 -4 -12 -2 -17 4 -13 13 8 46 -89 36 -105 -4 -7 -3
-9 4 -6 6 4 17 -12 26 -40 19 -56 19 -56 4 -47 -7 5 -8 3 -4 -5 5 -7 11 -9 15
-6 3 4 16 -15 28 -42 30 -66 29 -31 -1 44 -14 33 -23 69 -20 80 3 11 -2 35
-10 54 -9 19 -14 25 -10 14 10 -35 17 -80 12 -75 -7 6 -95 249 -112 310 -66
226 -94 372 -80 417 14 44 6 160 -11 167 -10 4 -15 -1 -15 -15 0 -11 3 -18 8
-16 4 3 8 -29 9 -72 l2 -76 -14 70 c-48 242 -52 1021 -10 1645 3 41 12 179 20
305 8 127 17 246 20 265 3 19 9 109 15 200 5 91 14 226 20 300 6 74 17 239 26
365 8 127 17 248 19 270 2 22 7 96 11 165 5 79 10 116 15 100 4 -14 5 2 3 35
-3 33 -1 92 4 130 12 88 13 -881 1 -1100 -4 -82 -14 -305 -23 -495 -9 -190
-18 -365 -21 -390 -3 -25 -12 -238 -21 -475 -30 -772 -5 -1333 76 -1730 34
-168 95 -433 111 -483 6 -17 7 -41 4 -53 -4 -11 -2 -25 3 -32 6 -7 12 -23 14
-35 3 -23 3 -24 24 -5 23 20 21 45 -3 36 -13 -5 -15 0 -11 25 2 18 2 32 -2 32
-11 0 -42 148 -34 161 4 7 3 9 -3 6 -10 -7 -21 37 -84 342 -24 117 -41 227
-42 276 -1 46 -5 81 -9 78 -5 -2 -8 15 -8 39 0 24 -4 70 -9 103 -6 33 -12 103
-16 155 -9 151 -7 884 4 1125 6 121 13 281 16 355 4 74 8 142 10 150 2 8 7 83
10 165 3 83 10 229 15 325 24 444 33 858 26 1213 -4 204 -6 391 -6 415 1 42
-3 51 -15 32z"/>
<path d="M4390 6714 c0 -17 4 -34 8 -39 10 -12 22 -52 56 -190 13 -55 41 -163
61 -240 21 -77 41 -162 46 -190 5 -27 19 -96 30 -153 11 -56 18 -110 15 -118
-3 -8 -2 -13 3 -10 4 3 14 -29 20 -72 7 -42 20 -117 30 -167 11 -49 26 -144
35 -210 37 -281 47 -353 56 -411 12 -73 13 -121 3 -127 -5 -2 -3 -3 3 -1 6 1
15 -40 22 -105 16 -135 21 -175 31 -233 6 -34 5 -48 -3 -48 -8 0 -7 -3 1 -8 6
-4 14 -27 17 -52 8 -71 45 -328 57 -407 6 -39 9 -79 5 -88 -3 -9 -2 -14 3 -11
4 3 18 -54 31 -127 51 -300 107 -548 193 -857 8 -30 13 -58 11 -62 -3 -5 0 -8
7 -8 6 0 9 -8 6 -20 -3 -11 -2 -18 2 -16 7 5 33 -54 36 -84 1 -8 7 -26 12 -40
6 -14 22 -59 36 -100 14 -41 29 -84 33 -94 5 -14 4 -17 -4 -12 -7 4 -12 2 -12
-3 0 -6 6 -11 13 -11 15 0 80 -167 71 -182 -4 -6 -3 -8 3 -5 12 8 33 -58 33
-104 0 -23 3 -30 9 -20 6 10 12 5 22 -18 8 -17 17 -31 21 -31 11 0 10 8 -3 31
-7 15 -7 24 1 34 6 7 7 15 2 17 -8 3 -44 139 -56 208 -3 14 -12 52 -20 85 -25
100 -85 348 -90 375 -2 14 -14 63 -26 110 -12 47 -23 94 -25 105 -2 11 -4 20
-5 20 -1 0 -3 9 -5 20 -3 11 -18 88 -35 170 -83 406 -97 487 -145 830 -14 99
-32 227 -40 285 -8 58 -17 123 -19 145 -3 22 -10 76 -16 120 -6 45 -12 99 -15
120 -13 110 -17 142 -22 170 -12 75 -55 357 -64 424 -15 115 -85 442 -124 586
-20 72 -43 156 -51 188 -8 32 -30 100 -49 150 -18 51 -50 139 -71 197 -20 58
-48 129 -61 158 -13 29 -21 58 -17 64 4 6 3 8 -3 5 -6 -4 -14 5 -17 19 -4 14
-16 35 -26 47 l-20 21 0 -30z m125 -275 c26 -68 47 -135 48 -150 1 -15 5 -25
9 -23 6 4 31 -68 83 -241 33 -109 33 -111 19 -108 -8 1 -10 -6 -6 -19 5 -20 6
-21 12 -3 14 40 116 -443 159 -755 5 -36 21 -148 35 -250 15 -102 33 -237 41
-300 9 -63 22 -169 31 -235 41 -322 100 -699 135 -875 67 -337 106 -522 132
-620 14 -52 27 -108 30 -125 2 -16 12 -58 22 -92 10 -37 14 -70 10 -80 -11
-24 -12 -72 -2 -66 5 3 6 17 2 32 -5 18 -3 23 4 16 6 -6 20 -51 32 -100 12
-50 32 -134 45 -188 37 -152 38 -153 -73 143 -127 343 -267 829 -247 861 4 8
3 9 -4 5 -7 -4 -12 -4 -12 1 0 4 -9 53 -21 108 -11 55 -29 150 -39 210 -11 61
-28 160 -39 220 -29 157 -53 334 -46 344 3 5 1 11 -4 13 -5 1 -25 131 -45 288
-77 606 -121 916 -161 1140 -13 74 -26 146 -29 160 -28 158 -58 298 -113 520
-36 146 -67 274 -68 285 -2 11 -6 29 -10 40 -21 65 32 -53 70 -156z"/>
<path d="M2805 6710 c8 -12 -33 -43 -46 -34 -7 4 -10 3 -6 -3 4 -6 -17 -30
-45 -54 -29 -24 -60 -52 -70 -62 -10 -10 -24 -15 -30 -11 -6 4 -8 3 -4 -4 8
-13 -64 -73 -77 -65 -6 3 -7 1 -4 -4 8 -13 -27 -46 -38 -36 -4 5 -5 3 -2 -3 3
-6 -26 -42 -65 -80 -39 -38 -97 -102 -130 -142 -34 -41 -64 -69 -70 -66 -7 4
-8 2 -4 -4 10 -17 -35 -75 -47 -60 -6 9 -7 7 -3 -5 7 -23 -64 -123 -76 -104
-4 7 -7 5 -6 -8 2 -27 -130 -227 -144 -219 -7 4 -8 2 -4 -4 8 -14 -128 -245
-138 -235 -4 4 -4 -1 0 -11 6 -15 4 -17 -6 -11 -8 5 -11 4 -7 -2 10 -15 -42
-105 -55 -97 -7 4 -8 2 -4 -4 8 -13 -41 -115 -53 -108 -4 3 -7 -5 -7 -17 1
-13 -4 -21 -12 -19 -8 1 -11 -2 -7 -7 3 -6 -14 -47 -39 -93 -24 -46 -59 -118
-77 -161 -18 -44 -35 -73 -39 -67 -5 8 -9 6 -13 -5 -4 -9 -3 -13 3 -10 16 10
12 -1 -29 -83 -21 -42 -62 -130 -91 -194 -30 -68 -57 -115 -63 -111 -6 3 -7 1
-3 -6 8 -13 -43 -141 -57 -141 -4 0 -5 -4 -2 -10 3 -6 2 -10 -3 -10 -6 0 -9
-6 -8 -12 2 -18 -55 -148 -63 -144 -3 2 -7 -6 -7 -17 -3 -36 -57 -157 -67
-150 -6 4 -7 1 -3 -6 9 -15 -154 -392 -166 -385 -4 3 -5 -1 -2 -9 4 -12 -34
-107 -179 -437 -77 -176 -79 -180 -90 -173 -6 3 -7 1 -3 -6 10 -16 -3 -53 -16
-45 -6 4 -8 2 -4 -4 7 -11 -77 -205 -86 -197 -2 3 -5 -1 -5 -9 0 -8 -19 -57
-43 -110 -30 -64 -47 -91 -53 -83 -6 8 -7 6 -3 -6 6 -20 -12 -67 -27 -67 -6 0
-8 -3 -4 -6 10 -11 -23 -65 -35 -58 -7 4 -8 3 -4 -5 10 -16 -3 -53 -16 -45 -6
4 -9 3 -6 -2 9 -14 -210 -397 -222 -389 -4 2 -7 -1 -7 -8 0 -21 -64 -117 -74
-111 -5 3 -8 0 -7 -8 2 -7 -2 -12 -9 -11 -7 2 -10 -4 -7 -12 8 -19 9 -19 40 1
14 10 23 23 20 31 -3 8 -2 12 3 9 9 -6 38 24 104 107 21 26 42 45 47 42 4 -3
7 3 6 13 0 9 5 16 12 14 8 -1 11 2 7 7 -3 6 19 43 49 83 30 40 80 114 112 163
31 50 54 82 51 72 -4 -11 -3 -16 4 -12 6 4 8 13 5 21 -3 8 9 38 28 67 18 28
50 84 71 122 21 39 43 73 49 77 6 4 8 8 4 8 -3 0 36 82 86 183 107 210 288
594 321 682 13 33 35 87 50 120 15 33 33 74 40 90 7 17 36 81 64 144 28 62 51
117 51 122 0 5 15 41 34 81 38 84 121 274 130 301 3 10 10 15 16 12 5 -3 7 0
4 8 -3 8 15 58 40 111 26 54 46 99 46 101 0 2 18 43 41 92 22 48 52 115 66
148 37 87 191 396 286 572 55 102 84 148 90 140 6 -8 7 -6 3 5 -7 24 55 132
67 115 6 -8 7 -7 3 5 -3 10 19 58 57 120 34 57 68 115 76 130 8 15 21 36 30
45 9 10 27 35 40 56 12 20 27 34 33 31 7 -4 8 -2 4 5 -6 9 62 109 94 141 3 3
18 21 34 40 16 19 50 60 76 90 26 30 69 80 95 110 26 30 77 87 114 125 130
139 125 132 102 138 -12 3 -19 2 -16 -3z m-165 -200 c-51 -55 -97 -97 -103
-93 -6 3 -7 1 -3 -5 4 -7 -26 -51 -72 -104 -43 -51 -102 -124 -132 -163 -29
-38 -57 -70 -61 -70 -4 0 -14 -7 -21 -15 -11 -12 -11 -12 5 -1 26 20 21 5 -14
-45 -18 -24 -36 -41 -42 -37 -6 3 -7 1 -3 -5 4 -7 4 -17 0 -23 -5 -8 -9 -8
-14 1 -5 8 -9 7 -13 -5 -4 -9 -3 -13 3 -10 19 11 10 -9 -32 -78 -24 -38 -52
-85 -64 -105 -11 -20 -56 -98 -99 -172 -80 -138 -292 -551 -357 -695 -20 -44
-72 -161 -116 -260 -124 -279 -138 -306 -144 -300 -3 4 -9 1 -14 -6 -4 -8 -3
-10 4 -5 19 11 14 -6 -20 -80 -17 -38 -60 -136 -94 -219 -35 -82 -68 -149 -74
-148 -5 2 -7 -3 -4 -10 6 -18 -41 -119 -51 -109 -5 4 -5 2 -2 -5 4 -6 -5 -39
-19 -73 -20 -44 -30 -58 -36 -48 -7 9 -8 8 -4 -5 3 -10 -2 -39 -10 -65 -18
-54 -272 -602 -314 -677 -15 -27 -60 -113 -100 -190 -159 -305 -338 -579 -484
-740 -31 -34 -28 -27 18 45 52 79 69 108 156 265 18 33 43 76 55 95 12 19 30
52 40 72 9 21 22 35 28 31 6 -3 7 -1 3 6 -4 7 3 35 17 64 14 29 55 115 90 192
36 77 84 181 107 230 52 112 160 357 235 535 113 269 218 499 226 494 5 -3 6
2 3 10 -6 15 27 103 79 216 16 36 51 115 77 175 104 239 180 406 244 531 36
73 66 138 66 145 0 11 3 11 11 -1 8 -12 9 -11 5 5 -7 23 108 242 124 238 5 -2
7 3 5 10 -6 15 219 412 233 412 6 0 14 4 19 9 5 5 3 6 -4 2 -7 -4 -13 -4 -13
1 1 12 26 43 32 38 2 -3 5 1 5 8 0 20 54 97 64 91 5 -3 6 -10 3 -16 -4 -7 -2
-8 5 -4 9 6 9 11 1 21 -9 10 -7 20 5 39 10 14 21 24 25 21 5 -3 12 0 16 6 4 8
3 9 -4 5 -7 -4 -12 -3 -12 3 0 11 20 26 35 26 5 0 10 7 11 15 2 32 5 34 19 16
8 -11 15 -15 15 -10 0 6 -5 15 -12 22 -14 14 8 46 25 35 6 -3 7 -1 3 6 -8 13
17 50 97 143 27 32 53 56 57 53 5 -3 12 0 16 6 4 8 3 9 -4 5 -23 -14 -12 10
16 37 16 15 32 24 36 20 4 -5 6 -1 4 7 -2 8 3 14 10 12 8 -1 11 2 8 7 -3 5 22
33 56 62 34 30 73 66 87 80 41 41 141 129 147 129 3 0 -36 -45 -86 -100z"/>
<path d="M4860 6705 c-10 -12 -10 -15 4 -15 10 0 14 -4 11 -10 -3 -5 -2 -10 4
-10 5 0 13 -15 17 -32 4 -18 8 -35 9 -38 1 -3 13 -31 28 -64 15 -32 27 -62 27
-66 0 -5 23 -59 50 -122 28 -62 55 -122 60 -133 5 -11 27 -60 50 -110 23 -49
43 -94 44 -100 1 -5 12 -30 24 -55 52 -109 206 -451 229 -510 14 -36 38 -96
53 -135 30 -74 48 -134 54 -181 2 -16 9 -60 15 -99 6 -38 18 -140 26 -225 21
-223 42 -393 60 -485 57 -299 71 -503 56 -793 -12 -221 -6 -512 14 -677 5 -38
30 -217 41 -295 16 -106 101 -484 121 -536 5 -13 3 -15 -8 -9 -8 5 -5 -2 6
-15 11 -13 14 -20 8 -16 -8 4 -13 1 -13 -8 0 -10 6 -13 18 -9 11 4 9 -1 -8
-16 -19 -17 -20 -21 -7 -17 10 3 24 6 30 6 13 0 12 106 -2 225 -5 39 -12 108
-15 155 -3 47 -11 135 -17 195 -18 191 -13 1041 6 1145 6 31 -8 175 -35 350
-11 74 -23 155 -26 180 -3 25 -16 101 -29 170 -13 69 -28 159 -34 200 -6 41
-20 140 -31 220 -30 211 -69 414 -97 505 -34 112 -143 369 -220 520 -82 160
-290 548 -349 648 -35 60 -64 111 -64 114 0 2 -13 24 -30 48 -16 24 -30 47
-30 52 0 4 -8 21 -19 36 -16 24 -19 26 -31 12z m123 -200 c30 -61 32 -69 15
-59 -8 4 -10 3 -5 -2 5 -5 13 -9 19 -9 29 0 420 -753 509 -980 88 -221 109
-315 164 -705 15 -103 36 -234 105 -650 45 -266 49 -317 42 -515 -11 -295 -7
-1027 6 -1145 6 -58 14 -148 18 -200 3 -52 10 -124 14 -160 10 -70 5 -96 -5
-34 -4 22 -10 53 -15 69 -4 17 -6 46 -4 65 3 29 2 30 -4 10 -7 -21 -10 -15
-24 40 -52 203 -88 428 -114 700 -14 145 -15 223 -8 460 14 456 10 522 -41
850 -45 295 -53 353 -65 470 -34 363 -62 499 -141 689 -41 99 -46 116 -27 105
7 -4 8 -3 4 5 -4 6 -11 9 -15 7 -13 -8 -42 64 -36 88 4 14 3 17 -3 8 -11 -16
-48 60 -37 77 3 6 1 10 -5 9 -6 -2 -46 76 -89 172 -43 96 -87 195 -98 220 -12
25 -28 61 -36 80 -8 19 -40 91 -71 160 -31 68 -58 134 -60 146 -2 12 -11 36
-20 53 -9 17 -13 31 -9 31 5 0 20 -25 36 -55z"/>
<path d="M2875 6515 c-17 -24 -34 -41 -39 -38 -5 4 -6 1 -3 -4 12 -19 -160
-306 -176 -296 -6 4 -7 1 -3 -6 5 -7 -7 -36 -27 -69 -121 -197 -494 -920 -555
-1077 -11 -27 -34 -80 -51 -117 -17 -37 -33 -79 -37 -93 -3 -13 -10 -23 -14
-20 -4 3 -7 -1 -6 -8 2 -20 -98 -266 -106 -261 -3 2 -10 -1 -14 -7 -5 -8 -3
-9 6 -4 9 6 12 4 8 -6 -3 -8 -16 -46 -28 -86 -13 -40 -28 -69 -33 -66 -6 3 -7
1 -4 -4 4 -6 0 -30 -9 -54 -8 -24 -17 -52 -19 -62 -2 -10 -20 -64 -39 -120
-51 -149 -106 -329 -106 -344 0 -8 -5 -11 -12 -7 -6 4 -8 3 -4 -4 3 -6 -7 -55
-24 -109 -17 -54 -40 -125 -50 -158 -20 -64 -76 -267 -111 -400 -12 -44 -29
-109 -39 -145 -26 -92 -57 -214 -73 -290 -52 -235 -62 -270 -69 -248 -6 16 -6
13 -3 -10 3 -18 -6 -88 -20 -155 -33 -165 -74 -425 -81 -518 -7 -84 2 -102 32
-66 11 12 12 16 4 10 -26 -20 -13 68 13 90 19 16 19 18 3 13 -12 -4 -17 -2
-13 7 3 7 19 64 35 127 17 63 42 149 56 190 13 41 32 103 42 137 10 37 21 60
27 56 6 -3 7 -1 3 6 -11 17 3 73 16 65 6 -4 8 -2 4 4 -6 9 41 181 149 542 19
63 62 207 95 320 156 527 200 660 219 660 13 0 13 2 2 9 -10 7 0 48 55 209 38
112 72 198 77 195 6 -3 7 -1 3 6 -7 10 6 51 81 256 30 82 237 578 283 680 18
39 69 153 115 255 45 102 110 243 144 314 33 70 61 129 61 131 0 1 29 63 64
136 141 296 214 465 205 474 -3 2 -18 -16 -34 -40z m-32 -101 c-16 -32 -33
-66 -38 -74 -5 -8 -10 -19 -11 -25 -2 -13 -176 -391 -224 -486 -21 -42 -59
-125 -85 -185 -26 -60 -51 -113 -55 -119 -5 -5 -28 -57 -53 -115 -24 -58 -58
-134 -75 -170 -17 -36 -44 -96 -60 -135 -111 -269 -136 -327 -139 -318 -3 7 3
25 11 42 9 16 16 36 15 43 0 7 -5 1 -11 -15 -5 -15 -13 -25 -17 -22 -5 2 -7
-14 -6 -37 2 -24 -6 -61 -17 -87 -20 -46 -25 -60 -92 -245 -20 -55 -39 -102
-43 -105 -3 -4 -3 2 0 12 4 11 3 16 -4 12 -6 -4 -8 -14 -4 -22 7 -20 -4 -55
-15 -48 -4 3 -11 -2 -14 -11 -3 -8 -2 -12 4 -9 6 3 10 3 10 -2 0 -23 -125
-381 -132 -377 -4 3 -5 -1 -2 -9 2 -7 0 -27 -7 -43 -15 -41 -73 -225 -118
-379 -41 -138 -112 -378 -160 -535 -16 -52 -59 -198 -96 -325 -36 -126 -79
-270 -95 -320 -46 -148 -81 -265 -110 -362 -14 -51 -28 -95 -31 -98 -3 -2 2
43 12 101 9 57 20 108 24 112 3 4 3 -7 -1 -23 -10 -43 2 -28 14 18 6 21 6 35
1 32 -5 -4 -9 4 -9 17 0 20 37 222 54 293 2 11 23 101 45 200 44 193 48 210
80 325 11 41 28 107 37 145 9 39 24 97 34 130 10 33 28 94 39 135 12 41 28 95
35 120 8 25 24 79 36 120 59 200 105 338 112 334 4 -3 5 1 3 8 -5 12 45 180
111 372 19 56 29 74 36 65 7 -10 8 -8 3 8 -9 33 114 351 282 733 87 197 386
774 396 764 3 -3 8 0 13 7 4 8 3 10 -4 5 -17 -10 -15 -1 6 34 10 16 22 27 27
22 5 -4 5 -1 1 6 -4 7 23 62 66 134 40 67 96 160 125 207 28 47 66 114 84 149
40 78 49 75 12 -4z"/>
<path d="M3322 6516 c-2 -17 -11 -60 -22 -96 -11 -36 -26 -94 -33 -130 -16
-73 -101 -401 -122 -470 -7 -25 -25 -88 -39 -140 -14 -52 -42 -153 -62 -225
-19 -71 -44 -163 -55 -203 -10 -41 -21 -77 -23 -80 -2 -4 -7 -27 -11 -51 -3
-24 -24 -110 -44 -190 -21 -80 -44 -171 -51 -201 -6 -30 -22 -100 -35 -155
-68 -293 -204 -1061 -230 -1300 -3 -27 -10 -81 -15 -120 -56 -408 -87 -932
-76 -1312 5 -191 4 -242 -6 -246 -10 -4 -10 -6 0 -6 6 -1 12 -13 12 -27 0 -17
-4 -23 -12 -18 -6 4 -4 -3 5 -17 9 -13 17 -39 17 -59 1 -62 17 -11 24 75 11
132 16 179 23 200 4 11 5 34 4 51 -1 17 2 76 8 130 6 55 13 128 16 164 5 56
34 318 40 360 1 8 5 51 9 95 12 127 55 482 70 575 7 47 24 153 37 237 13 83
27 149 31 147 4 -2 10 1 14 7 4 8 3 9 -4 5 -16 -10 -15 6 8 147 59 349 132
731 140 724 3 -3 5 9 6 26 0 39 10 100 30 187 8 35 22 98 30 140 8 41 26 120
39 175 33 135 141 603 160 690 40 185 74 354 79 390 2 22 11 81 20 130 8 50
20 155 26 233 6 79 15 154 20 167 7 19 6 23 -9 22 -12 -1 -18 -11 -19 -31z
m-17 -266 c-9 -69 -20 -147 -25 -175 -5 -27 -12 -77 -15 -110 -4 -33 -19 -112
-35 -175 -15 -63 -31 -135 -35 -160 -4 -25 -25 -119 -47 -210 -70 -293 -77
-321 -137 -590 -33 -146 -63 -283 -66 -305 -4 -22 -15 -80 -25 -130 -11 -49
-35 -175 -55 -280 -19 -104 -42 -224 -50 -265 -8 -41 -19 -109 -25 -150 -24
-176 -57 -344 -62 -315 -2 17 -4 1 -4 -35 0 -36 -7 -114 -17 -175 -26 -171
-65 -472 -72 -560 -4 -44 -15 -152 -26 -240 -10 -88 -23 -209 -29 -270 -28
-293 -40 -435 -41 -485 -5 -134 -17 128 -18 370 -1 312 19 675 54 990 26 227
107 796 120 840 2 8 18 96 35 195 17 99 40 225 51 280 47 225 94 429 134 590
23 94 50 204 59 245 16 68 52 202 111 414 13 45 25 73 29 65 3 -8 3 -4 0 8 -2
12 12 79 32 150 20 70 47 171 61 223 67 260 103 405 104 424 1 13 4 9 6 -9 3
-16 -3 -86 -12 -155z"/>
<path d="M5936 5415 c1 -44 -1 -63 -8 -58 -6 3 -8 1 -5 -4 4 -6 9 -57 11 -114
16 -349 27 -581 51 -1019 3 -47 9 -184 15 -305 19 -397 50 -813 70 -925 5 -30
11 -75 14 -100 7 -63 53 -308 77 -410 30 -127 30 -130 19 -130 -5 0 -1 -9 11
-21 15 -15 20 -30 17 -50 -3 -16 -1 -29 3 -29 10 0 29 58 21 62 -4 2 -20 95
-35 208 -16 113 -35 250 -43 305 -17 122 -31 260 -39 380 -3 50 -10 144 -15
210 -9 113 -14 182 -40 630 -6 99 -15 234 -20 300 -4 66 -9 143 -9 170 -1 28
-8 136 -16 240 -9 105 -16 244 -18 310 -1 66 -6 123 -11 127 -8 5 -23 117 -30
226 -5 73 -23 71 -20 -3z m43 -430 c15 -192 20 -253 26 -290 3 -16 12 -158 20
-315 15 -280 39 -699 50 -874 5 -80 4 -88 -10 -76 -10 8 -15 9 -15 1 0 -6 4
-11 10 -11 5 0 7 -13 4 -30 -4 -19 -2 -30 5 -30 6 0 12 12 12 28 1 15 5 -18 9
-73 5 -55 11 -140 15 -190 8 -104 47 -426 70 -565 8 -52 14 -102 14 -110 -1
-19 -17 34 -24 80 -3 19 -12 64 -20 100 -19 85 -71 442 -80 550 -4 47 -9 96
-11 110 -2 14 -10 142 -19 285 -8 143 -17 294 -20 335 -8 124 -16 316 -19 481
-2 86 -6 161 -9 165 -2 5 -8 79 -11 164 -4 85 -9 171 -11 190 -2 19 -6 118 -8
220 -5 190 -3 174 22 -145z"/>
<path d="M7792 5381 c-7 -21 -12 -56 -12 -77 0 -22 -6 -97 -14 -169 -16 -147
-24 -267 -31 -470 -3 -77 -7 -162 -10 -190 -3 -27 -7 -115 -11 -195 -24 -565
-30 -794 -26 -1075 2 -176 3 -328 3 -339 0 -10 3 -15 7 -11 11 11 31 201 31
308 1 70 4 97 14 97 9 0 8 3 -2 9 -10 7 -12 23 -7 67 3 33 8 113 11 179 3 66
9 197 15 290 5 94 12 242 16 330 3 88 7 183 10 210 12 163 28 1075 19 1075 -1
0 -7 -17 -13 -39z m-5 -523 c-3 -183 -13 -454 -21 -603 -8 -148 -20 -382 -26
-520 -16 -382 -31 -668 -34 -685 -2 -8 -4 98 -5 235 -2 455 64 1905 86 1905 3
0 3 -150 0 -332z"/>
<path d="M8296 5271 c-5 -7 -9 -47 -11 -89 -6 -185 -26 -417 -38 -424 -7 -4
-7 -8 -2 -8 6 0 9 -38 7 -97 -3 -145 -11 -205 -25 -196 -7 4 -6 -1 2 -10 10
-13 12 -40 7 -124 -9 -132 -43 -517 -57 -633 -5 -47 -14 -125 -19 -175 -6 -49
-12 -101 -15 -115 -2 -14 -16 -124 -30 -245 -14 -121 -29 -254 -35 -295 -5
-41 -12 -102 -15 -135 -3 -33 -10 -114 -16 -180 -6 -66 -14 -220 -18 -343 -6
-143 -12 -227 -20 -235 -6 -6 -11 -18 -10 -27 0 -10 3 -9 8 5 7 16 10 10 16
-28 4 -28 3 -53 -2 -58 -5 -5 -7 5 -5 26 2 19 0 35 -5 35 -15 0 -7 -71 8 -81
13 -8 5 -13 -16 -9 -5 1 -2 -7 8 -18 9 -10 17 -35 17 -55 0 -32 3 -37 23 -36
12 0 17 3 11 5 -6 3 -9 16 -6 29 2 15 9 22 16 18 6 -4 6 0 -2 9 -12 15 -12 29
3 128 9 62 36 263 42 317 3 32 10 50 16 46 6 -4 7 -1 2 6 -9 15 25 252 36 246
4 -3 5 3 2 13 -2 11 1 54 7 98 7 43 14 100 17 126 3 26 9 45 14 42 5 -3 6 2 3
11 -10 25 6 131 17 114 7 -10 8 -7 4 11 -6 26 49 472 60 490 4 6 9 52 11 103
3 50 7 110 9 132 2 22 7 119 11 215 4 96 11 177 15 178 5 2 9 8 9 13 0 6 -3 8
-7 6 -5 -3 -8 149 -7 336 1 370 -12 820 -25 851 -6 15 -9 17 -15 7z m19 -941
c-3 -601 -8 -663 -100 -1330 -8 -58 -20 -141 -25 -185 -6 -44 -18 -118 -26
-165 -8 -47 -21 -132 -29 -190 -8 -58 -23 -166 -34 -240 -10 -74 -25 -180 -32
-235 -7 -55 -16 -109 -20 -120 -9 -20 -3 461 6 545 3 25 7 83 10 130 3 47 12
144 21 215 8 72 19 171 24 220 6 50 15 117 19 150 5 33 12 92 15 130 4 39 11
99 16 135 5 36 11 85 14 110 2 25 9 86 15 135 37 303 53 497 76 960 9 163 26
397 33 445 13 85 19 -200 17 -710z"/>
<path d="M6321 1929 c-47 -5 -89 -5 -94 -2 -6 3 -7 2 -4 -4 3 -5 -26 -17 -68
-27 -41 -10 -75 -22 -75 -28 0 -6 8 -7 18 -3 126 49 375 65 487 32 73 -22 125
-45 125 -56 0 -5 -63 -18 -140 -31 -108 -18 -162 -22 -233 -17 -93 6 -243 35
-233 45 3 3 31 -1 61 -8 43 -10 58 -11 68 -1 9 9 6 11 -13 8 -14 -2 -40 2 -58
10 -18 8 -42 11 -53 8 -11 -4 -25 -2 -32 3 -8 6 -23 4 -42 -4 -20 -9 -23 -13
-10 -12 11 1 46 -8 77 -20 32 -12 86 -26 120 -32 72 -13 249 -28 241 -20 -5 6
158 38 240 46 31 4 57 10 57 14 0 13 -95 58 -165 78 -85 25 -163 31 -274 21z"/>
<path d="M7335 1896 c-49 -5 -93 -14 -97 -20 -14 -20 -8 -28 8 -12 21 22 27
20 13 -5 -8 -15 -8 -19 0 -15 6 4 56 -13 112 -39 92 -42 116 -48 292 -75 219
-33 218 -33 235 -43 15 -10 16 16 1 45 -8 16 -8 23 2 30 11 8 10 9 -3 5 -11
-4 -25 6 -42 28 -14 19 -51 46 -83 61 -112 53 -217 62 -438 40z m305 -15 c21
-5 34 -13 32 -21 -2 -10 0 -11 11 -2 11 9 22 9 48 0 43 -15 109 -58 109 -71 0
-6 -9 -2 -20 8 -11 10 -20 14 -20 10 0 -5 -12 2 -27 16 l-28 24 24 -27 c14
-16 27 -26 29 -23 9 8 32 -17 26 -27 -4 -6 1 -8 13 -4 15 5 25 -1 37 -20 10
-14 15 -28 12 -31 -2 -3 -26 0 -53 6 -26 6 -93 18 -148 26 -169 25 -216 35
-274 58 -31 13 -55 29 -53 35 1 7 -9 12 -22 12 -30 0 -56 9 -56 21 0 14 302
23 360 10z"/>
<path d="M6901 1738 c-57 -190 -76 -246 -85 -241 -5 4 -6 1 -2 -5 9 -15 -41
-125 -54 -117 -5 3 -7 -1 -4 -9 7 -19 -44 -46 -88 -46 -18 0 -85 9 -148 20
-132 23 -193 25 -240 8 -25 -8 -35 -8 -38 0 -2 6 -10 8 -18 5 -11 -4 -12 -9
-3 -19 11 -13 3 -19 -22 -16 -4 1 -9 -8 -12 -18 -5 -19 13 -27 46 -21 18 3 97
-22 97 -31 0 -6 7 -8 15 -4 8 3 15 1 15 -5 0 -6 4 -8 8 -5 14 8 82 -16 75 -27
-3 -6 -1 -7 6 -3 6 4 17 3 24 -2 27 -21 144 -53 197 -54 89 -1 170 44 219 122
76 119 90 270 47 517 -5 31 -15 18 -35 -49z m29 -5 c-1 -16 5 -63 11 -106 26
-156 -28 -343 -117 -406 -55 -40 -105 -61 -146 -61 -41 0 -148 30 -148 41 0 5
-9 9 -21 9 -11 0 -30 5 -42 12 -12 6 -50 21 -85 33 -35 12 -63 25 -63 31 0 5
-7 13 -15 17 -8 5 -11 14 -7 20 4 7 -2 5 -13 -3 -29 -22 -30 -24 -12 -17 10 3
20 2 23 -4 4 -6 -7 -9 -28 -7 -42 2 -39 22 5 37 48 17 153 13 279 -10 74 -13
126 -18 149 -13 19 5 41 8 47 9 7 0 13 5 14 10 0 6 6 18 11 29 8 15 12 16 20
5 8 -11 9 -10 4 4 -3 10 5 39 18 65 20 42 62 168 95 290 14 48 22 54 21 15z"/>
<path d="M5834 1752 c3 -6 -3 -16 -15 -23 -17 -9 -24 -8 -31 2 -7 11 -8 10 -6
-4 4 -24 -94 -71 -113 -54 -11 10 -11 9 -1 -4 11 -14 -1 -21 -89 -58 -112 -46
-188 -64 -234 -56 -22 4 -25 3 -10 -4 16 -6 11 -9 -27 -15 -26 -4 -50 -12 -54
-17 -3 -6 -17 -8 -30 -5 -14 4 -24 2 -24 -4 0 -6 6 -8 13 -4 6 4 0 -5 -16 -21
-37 -38 -47 -80 -31 -128 l13 -37 -170 5 c-94 2 -174 7 -179 10 -16 10 -222 7
-330 -5 -58 -6 -168 -22 -245 -35 -77 -14 -158 -27 -180 -30 -22 -3 -60 -10
-85 -15 -133 -27 -336 -41 -695 -46 -321 -4 -446 -9 -507 -19 -27 -5 -38 -4
-34 3 6 11 -19 10 -30 0 -3 -4 -17 -3 -30 2 -14 6 -26 6 -29 0 -4 -6 -12 -10
-18 -10 -8 0 -8 3 1 9 9 5 4 8 -16 7 -17 -1 -28 -4 -26 -8 10 -15 -95 5 -231
45 -106 30 -158 41 -215 41 -85 1 -140 -5 -140 -15 0 -4 -10 -9 -23 -13 -12
-3 -37 -21 -55 -39 -27 -27 -33 -42 -32 -73 1 -64 3 -74 13 -74 5 0 4 -7 -3
-16 -11 -12 -11 -15 1 -12 8 2 13 -4 13 -14 -1 -10 2 -15 7 -12 5 3 9 -3 9
-14 0 -15 -9 -21 -42 -25 -79 -11 -356 33 -343 53 3 5 0 12 -6 16 -8 4 -9 3
-5 -4 9 -15 -14 -15 -49 -2 -14 5 -24 14 -21 19 3 4 -6 6 -19 3 -14 -2 -25 0
-25 6 0 5 -6 10 -12 9 -32 -1 -49 4 -43 12 3 5 0 13 -6 17 -8 5 -9 3 -4 -6 6
-10 4 -12 -9 -7 -10 4 -25 7 -34 7 -15 0 -15 2 -2 11 13 9 12 10 -3 5 -10 -3
-67 14 -131 39 -137 54 -168 70 -158 80 4 5 1 5 -6 1 -15 -9 -54 2 -47 14 3 4
-3 6 -14 3 -11 -3 -27 4 -41 19 -13 12 -20 17 -16 11 9 -17 0 -16 -32 2 -15 8
-92 44 -172 80 -80 37 -147 69 -150 73 -3 4 -9 7 -15 7 -5 1 -29 9 -53 19 -42
18 -43 19 -25 40 18 21 18 21 -4 3 -25 -22 -63 -15 -64 11 0 9 -3 12 -5 5 -4
-8 -28 -2 -79 19 -41 17 -73 33 -71 37 2 3 -16 7 -40 8 -24 1 -44 -2 -44 -7 0
-6 8 -10 18 -10 9 0 46 -16 82 -35 40 -22 72 -33 85 -29 16 4 17 3 5 -5 -11
-8 -11 -11 -2 -11 7 0 17 -10 22 -22 5 -13 9 -17 9 -11 1 8 18 3 49 -14 86
-48 102 -60 94 -68 -4 -5 -2 -5 4 -2 6 4 26 -1 45 -10 30 -15 31 -17 13 -25
-14 -6 -12 -7 9 -3 21 4 27 2 21 -6 -4 -7 -3 -9 4 -5 13 8 183 -84 176 -95 -2
-4 4 -7 13 -6 25 1 154 -63 147 -74 -3 -5 3 -6 12 -2 13 5 15 3 9 -7 -6 -10
-4 -12 9 -7 21 8 172 -58 168 -74 -2 -7 4 -9 13 -5 9 3 58 -12 108 -33 51 -21
113 -46 139 -56 26 -10 45 -22 42 -27 -4 -6 1 -8 12 -4 25 7 113 -19 94 -28
-8 -3 -4 -4 10 -1 45 8 128 -24 114 -46 -2 -4 3 -10 12 -13 9 -4 13 -2 8 5 -4
8 1 9 17 4 16 -5 21 -4 14 3 -5 5 -19 12 -30 15 -13 3 -9 5 13 6 17 0 32 -3
32 -9 0 -12 40 -34 47 -26 3 3 -5 10 -18 15 l-24 10 28 0 c19 1 27 -4 28 -16
0 -11 3 -13 6 -5 2 6 13 12 23 12 14 0 17 -5 12 -22 -3 -14 -1 -19 6 -14 6 4
21 2 32 -4 12 -6 20 -7 20 -1 0 5 -8 12 -17 14 -16 5 2 6 84 7 12 0 25 5 28
10 4 6 12 7 18 4 7 -4 8 -3 4 1 -9 11 -39 16 -33 7 2 -4 -26 -8 -62 -8 l-67
-2 73 13 c39 8 82 17 95 21 12 4 29 7 37 6 13 -3 13 -2 0 7 -13 10 -13 11 0
12 8 1 20 0 25 -1 6 -1 7 2 3 5 -4 4 -2 17 4 29 15 26 17 105 3 103 -5 -1 -10
7 -10 17 0 11 -6 21 -13 24 -6 2 -10 8 -6 13 3 5 0 9 -6 9 -6 0 -8 5 -5 10 4
6 10 8 15 5 5 -3 11 -1 15 5 3 5 25 10 48 10 47 0 187 -38 187 -51 0 -5 -12
-4 -26 1 -14 6 -29 8 -34 5 -5 -3 -11 0 -13 5 -3 6 -5 5 -3 -1 1 -7 13 -13 26
-15 49 -7 60 -10 72 -22 17 -17 28 -15 28 4 0 11 5 14 16 10 9 -3 22 -6 30 -6
9 0 13 -3 11 -7 -7 -12 92 -18 253 -16 542 7 1068 7 1064 1 -3 -4 2 -5 10 -2
9 3 16 10 16 15 0 6 8 5 19 -1 11 -5 30 -9 43 -9 19 1 18 3 -7 9 -29 7 -29 8
10 9 22 1 51 4 64 8 17 4 22 3 17 -5 -4 -7 -1 -12 9 -12 9 0 14 4 11 9 -7 11
29 21 69 20 26 -1 27 -2 8 -7 l-22 -7 25 -12 c19 -9 24 -9 23 0 -3 28 3 37 26
37 18 0 23 -4 19 -15 -4 -10 0 -15 11 -15 12 0 15 5 10 19 -5 17 1 20 47 26
35 5 53 4 56 -4 5 -15 23 -14 19 1 -3 15 52 27 111 23 29 -2 39 0 27 5 -13 4
18 12 90 22 79 10 114 11 124 4 11 -8 13 -8 7 2 -5 9 8 12 53 12 42 0 61 -4
61 -12 0 -10 2 -10 9 0 6 10 54 12 217 10 115 -2 238 1 273 6 48 6 62 5 56 -4
-4 -7 -1 -10 11 -8 11 2 18 -2 17 -8 -1 -7 5 -11 15 -10 10 0 16 -5 14 -13 -2
-8 3 -11 12 -8 9 4 18 2 21 -2 2 -5 25 -12 50 -15 24 -4 47 -11 50 -15 2 -5
17 -6 32 -3 26 5 27 4 14 -14 -14 -18 -14 -18 3 -3 19 18 70 14 59 -5 -4 -6 1
-5 10 3 17 13 24 4 10 -15 -5 -5 -1 -1 9 8 19 21 32 24 23 6 -4 -7 -1 -6 7 2
7 9 42 21 77 28 78 16 171 50 171 63 0 5 -19 9 -43 9 -24 0 -49 6 -56 13 -11
10 -12 9 -6 -2 6 -11 -7 -12 -76 -6 -104 9 -161 20 -219 46 -36 16 -42 22 -30
30 12 8 10 9 -6 4 -16 -4 -31 5 -63 40 -22 24 -41 51 -41 60 0 14 48 45 70 45
24 0 162 63 219 100 33 21 62 35 66 32 4 -4 5 -2 3 4 -1 7 20 34 47 61 59 57
115 127 115 141 0 6 -5 14 -12 18 -7 4 -8 3 -4 -4z m-43 -69 c-31 -44 -121
-127 -179 -166 -93 -63 -151 -86 -210 -82 -30 2 -52 0 -52 -6 0 -6 -4 -7 -10
-4 -5 3 -10 1 -10 -5 0 -6 -4 -8 -10 -5 -5 3 -10 2 -10 -3 0 -18 14 -22 30 -7
9 8 32 17 51 21 26 4 30 3 19 -5 -8 -6 -22 -11 -31 -11 -9 0 -28 -9 -43 -21
-35 -27 -28 -49 33 -112 78 -82 154 -108 356 -123 77 -5 93 -9 71 -15 -16 -5
-33 -6 -37 -3 -4 2 -42 7 -84 10 -59 5 -79 3 -86 -7 -5 -8 -3 -17 4 -21 19
-12 57 -9 57 4 0 6 3 9 6 6 3 -4 18 -3 32 1 15 5 36 5 47 1 14 -5 1 -10 -45
-18 -96 -15 -171 -14 -247 3 -64 15 -144 56 -142 73 3 17 -2 23 -12 16 -21
-13 -103 -16 -419 -18 -307 -2 -431 -12 -588 -47 -23 -5 -104 -18 -180 -29
-75 -10 -173 -24 -217 -31 -71 -10 -607 -20 -1225 -22 l-175 -1 -160 48 c-157
47 -196 51 -249 30 -14 -5 -17 -4 -12 5 6 10 3 9 -13 0 -11 -8 -17 -16 -13
-19 15 -11 62 -120 62 -144 0 -57 -74 -96 -196 -104 -164 -10 -389 51 -729
198 -199 85 -426 200 -419 211 4 6 13 4 25 -7 10 -9 19 -12 19 -7 0 14 -30 26
-57 24 -30 -3 -80 24 -80 43 0 20 6 20 43 2 16 -8 57 -26 91 -41 35 -15 60
-31 57 -36 -3 -5 1 -6 9 -3 8 3 39 -6 70 -20 31 -15 61 -26 67 -26 6 0 8 -5 5
-10 -4 -6 -10 -8 -15 -5 -11 7 -7 -22 5 -32 4 -4 5 -3 1 4 -3 6 -2 14 4 18 5
3 10 1 10 -5 0 -6 5 -8 10 -5 6 4 8 11 5 16 -4 5 -2 9 4 9 5 0 12 -4 15 -9 3
-4 34 -18 68 -31 35 -12 77 -28 93 -36 57 -25 306 -114 368 -130 165 -44 337
-57 388 -30 23 12 29 12 43 0 9 -8 11 -9 6 -2 -6 7 -10 20 -10 30 0 20 -20 25
-21 6 -2 -31 -48 91 -48 129 -1 55 28 88 101 113 85 30 173 26 288 -10 202
-65 318 -74 657 -51 84 6 275 11 424 11 148 0 274 2 278 5 5 2 62 9 127 15
115 10 186 21 399 61 239 44 338 52 585 45 129 -4 255 -11 280 -16 32 -6 13
-7 -61 -3 -69 4 -109 2 -113 -5 -4 -7 39 -10 131 -10 76 0 127 3 113 7 -25 8
-25 8 6 15 17 4 35 6 40 5 23 -4 24 3 3 32 -38 53 -9 131 59 158 15 6 68 20
118 30 109 24 214 61 306 107 37 19 72 34 78 34 6 0 20 9 32 20 30 28 33 25 9
-7z"/>
<path d="M7696 1669 c2 -4 -22 -10 -54 -14 -63 -7 -269 -59 -318 -80 -32 -13
-113 -30 -127 -27 -5 2 -6 -2 -3 -7 4 -5 1 -11 -5 -13 -16 -5 -13 -120 5 -162
8 -20 26 -47 40 -61 21 -21 29 -23 50 -15 16 6 27 6 31 0 6 -10 -2 -14 -19
-11 -5 1 -4 -5 4 -13 9 -12 9 -16 1 -16 -8 0 -7 -6 3 -16 15 -14 17 -21 20
-51 1 -7 4 -12 8 -10 10 4 48 -35 42 -45 -3 -4 -2 -7 3 -6 18 5 53 -14 53 -28
0 -9 8 -14 18 -13 9 1 22 0 27 -1 6 -1 26 -2 45 -2 33 0 33 0 5 -5 -47 -7 -53
-22 -6 -17 22 3 41 1 41 -5 0 -5 9 -7 21 -4 16 4 17 8 7 14 -8 6 4 8 32 8 25
0 39 -3 33 -6 -21 -8 -15 -22 7 -16 11 3 17 9 14 14 -3 5 -1 9 5 9 5 0 12 -4
16 -9 3 -5 18 -7 32 -5 40 8 41 14 2 15 -19 1 0 5 41 10 60 6 77 5 83 -7 6
-11 11 -11 21 -1 10 9 11 14 2 19 -6 5 -1 8 12 8 15 0 21 -4 16 -12 -4 -7 -3
-8 5 -4 6 4 9 10 7 14 -2 4 22 15 54 25 64 21 120 65 120 96 0 12 5 21 12 21
9 0 9 3 0 12 -7 7 -12 21 -12 33 0 11 -32 54 -75 99 -41 44 -71 84 -68 89 3 6
1 7 -4 4 -16 -10 -73 47 -75 75 -1 26 -3 33 -13 66 -4 12 -11 22 -16 22 -5 0
-9 7 -9 15 0 9 -10 15 -27 16 -84 4 -111 3 -107 -2z m114 -19 c11 -7 6 -8 -17
-4 -45 9 -42 -10 3 -22 30 -7 38 -16 50 -49 16 -45 17 -51 8 -42 -4 3 -12 0
-20 -7 -7 -7 -24 -12 -38 -11 -15 2 -26 -2 -26 -8 0 -7 -4 -6 -10 3 -6 10 -9
5 -8 -18 1 -19 6 -33 15 -33 7 -1 22 -2 32 -3 23 -1 41 -16 20 -16 -11 0 -11
-2 1 -10 10 -6 11 -10 3 -10 -7 0 -13 -4 -13 -10 0 -5 7 -7 15 -4 16 6 20 41
7 60 -4 6 -15 10 -24 8 -10 -1 -18 2 -18 7 0 6 -5 7 -12 3 -7 -4 -8 -3 -4 5 4
6 18 9 32 7 15 -3 27 1 34 12 9 15 14 12 45 -20 19 -21 36 -37 38 -35 1 1 20
-18 42 -42 22 -25 34 -41 28 -37 -8 4 -13 2 -13 -4 0 -6 -4 -8 -10 -5 -5 3
-10 -1 -10 -9 0 -9 -5 -16 -11 -16 -5 0 -7 5 -4 10 4 6 3 10 -2 9 -22 -4 -43
2 -38 11 3 6 1 10 -5 10 -7 0 -10 -7 -6 -15 3 -8 1 -15 -5 -15 -7 0 -8 -12 -4
-30 5 -25 3 -30 -12 -31 -13 0 -14 -2 -4 -6 8 -3 20 3 28 13 11 15 17 16 32 7
14 -9 18 -8 18 2 0 8 -3 14 -6 13 -3 0 -16 0 -29 1 -25 1 -26 21 -2 29 7 3 10
0 7 -5 -3 -5 6 -9 21 -10 51 -1 58 -4 37 -13 -19 -8 -19 -9 2 -9 31 -1 39 17
11 28 -13 6 -17 11 -10 12 6 1 18 2 25 3 15 3 37 -13 37 -26 0 -5 -6 -6 -12
-2 -9 6 -9 3 0 -9 15 -18 7 -41 -10 -31 -7 5 -8 2 -3 -6 5 -8 3 -11 -6 -8 -8
3 -13 10 -12 15 1 5 -7 9 -18 9 -30 0 -23 -33 11 -51 23 -12 28 -12 24 -2 -3
8 2 19 9 26 12 9 16 8 21 -4 3 -8 1 -15 -5 -15 -6 0 -7 -5 -3 -11 5 -8 9 -7
15 4 10 17 8 44 -5 67 -8 13 -7 13 7 0 8 -8 18 -31 22 -50 5 -27 4 -32 -5 -20
-9 12 -11 10 -6 -11 4 -19 0 -31 -17 -46 -32 -29 -34 -30 -143 -58 -180 -48
-379 -44 -484 8 -50 24 -92 85 -88 127 1 14 -1 31 -6 38 -10 16 12 44 28 36 6
-3 4 0 -5 8 -9 7 -14 20 -11 28 3 8 1 12 -3 8 -4 -4 -8 -18 -9 -30 -1 -31 -44
-52 -71 -34 -44 28 -78 142 -56 185 8 15 21 21 45 21 20 0 36 6 39 14 3 8 43
26 89 40 81 25 136 35 93 16 -11 -5 -15 -9 -8 -9 19 -1 43 11 38 19 -5 8 47
23 140 39 33 6 69 12 80 15 38 7 80 6 95 -4z"/>
<path d="M7661 1201 c-8 -14 -7 -20 4 -25 8 -3 15 -10 15 -16 0 -6 -4 -9 -8
-6 -4 2 -8 -4 -8 -15 0 -10 4 -19 8 -19 4 0 8 8 8 17 0 15 1 15 14 -2 8 -11
20 -16 29 -12 9 3 19 2 22 -3 10 -16 85 -12 91 4 3 8 12 12 19 10 15 -6 125
20 163 39 29 14 45 44 18 34 -9 -4 -15 -3 -12 2 3 5 -9 8 -28 7 -28 -1 -32 -4
-30 -23 1 -13 -2 -23 -8 -23 -6 0 -7 7 -4 16 4 10 1 14 -6 11 -7 -2 -25 -1
-40 4 -21 6 -26 4 -21 -7 3 -8 9 -14 14 -14 5 0 9 -4 9 -10 0 -5 -3 -9 -7 -9
-5 1 -10 0 -13 -1 -3 -1 -18 -3 -33 -4 -28 -3 -28 -2 -23 33 5 28 4 32 -4 18
-9 -13 -15 -15 -31 -7 -13 7 -19 7 -19 0 0 -5 -9 -10 -21 -10 -11 0 -17 4 -14
10 3 6 -1 7 -9 4 -14 -5 -14 -8 -1 -20 8 -8 19 -23 24 -32 5 -9 12 -14 16 -11
3 4 -1 14 -10 23 -19 19 -12 21 17 5 18 -9 20 -9 15 4 -4 11 -2 14 9 10 19 -7
18 -8 -13 -38 -27 -24 -50 -34 -39 -16 3 5 -1 14 -9 21 -11 9 -18 10 -29 1
-10 -9 -17 -6 -30 13 -19 29 -21 50 -4 40 7 -4 8 -3 4 4 -10 16 -14 15 -25 -7z"/>
</g>
</svg>
